<svg width="54" height="54" viewBox="0 0 54 54" fill="none" xmlns="http://www.w3.org/2000/svg">
<path d="M26.82 19.016L27 19C27.2341 18.9999 27.4607 19.0819 27.6405 19.2318C27.8203 19.3816 27.9419 19.5898 27.984 19.82L28 20V26H34C34.2341 25.9999 34.4607 26.0819 34.6405 26.2318C34.8203 26.3816 34.9419 26.5898 34.984 26.82L35 27C35.0001 27.2341 34.9181 27.4607 34.7682 27.6405C34.6184 27.8203 34.4102 27.9419 34.18 27.984L34 28H28V34C28.0001 34.2341 27.9181 34.4607 27.7682 34.6405C27.6184 34.8203 27.4102 34.9419 27.18 34.984L27 35C26.7659 35.0001 26.5393 34.9181 26.3595 34.7682C26.1797 34.6184 26.0581 34.4102 26.016 34.18L26 34V28H20C19.7659 28.0001 19.5393 27.9181 19.3595 27.7682C19.1797 27.6184 19.0581 27.4102 19.016 27.18L19 27C18.9999 26.7659 19.0819 26.5393 19.2318 26.3595C19.3816 26.1797 19.5898 26.0581 19.82 26.016L20 26H26V20C25.9999 19.7659 26.0819 19.5393 26.2318 19.3595C26.3816 19.1797 26.5898 19.0581 26.82 19.016Z" fill="#A2A2A2"/>
<rect x="0.5" y="0.5" width="53" height="53" rx="26.5" stroke="#A2A2A2" stroke-dasharray="6 4"/>
</svg>
