<svg width="13" height="12" viewBox="0 0 13 12" fill="none" xmlns="http://www.w3.org/2000/svg">
<path d="M6.4 6.46755C6.96474 6.24685 7.45059 5.86232 7.7951 5.36337C8.13962 4.86442 8.32706 4.27385 8.33333 3.66755C8.3351 3.27309 8.25871 2.88219 8.10857 2.51741C7.95843 2.15264 7.73752 1.82122 7.45859 1.54229C7.17966 1.26336 6.84824 1.04245 6.48347 0.892315C6.11869 0.742176 5.72779 0.665783 5.33333 0.667548C4.62774 0.653964 3.93994 0.889566 3.39087 1.33293C2.8418 1.7763 2.46661 2.39904 2.33127 3.09167C2.19593 3.78429 2.3091 4.50246 2.65089 5.1199C2.99267 5.73734 3.54119 6.21452 4.2 6.46755C3.04339 6.6641 1.99139 7.25747 1.22489 8.14565C0.458381 9.03382 0.0252625 10.1613 0 11.3342H1C1.04173 10.2402 1.51306 9.20669 2.31178 8.45789C3.1105 7.70909 4.17221 7.30535 5.26667 7.33421C6.36112 7.30535 7.42283 7.70909 8.22155 8.45789C9.02027 9.20669 9.4916 10.2402 9.53333 11.3342H10.5333C10.5238 10.1673 10.1047 9.04076 9.34924 8.1513C8.5938 7.26183 7.54999 6.66591 6.4 6.46755ZM3.26667 3.66755C3.26667 3.27199 3.38397 2.88531 3.60373 2.55641C3.82349 2.22751 4.13585 1.97116 4.5013 1.81979C4.86675 1.66841 5.26889 1.62881 5.65685 1.70598C6.04481 1.78315 6.40118 1.97363 6.68088 2.25333C6.96059 2.53304 7.15107 2.88941 7.22824 3.27737C7.30541 3.66533 7.2658 4.06746 7.11443 4.43292C6.96305 4.79837 6.70671 5.11072 6.37781 5.33049C6.04891 5.55025 5.66223 5.66755 5.26667 5.66755C4.73623 5.66755 4.22753 5.45683 3.85245 5.08176C3.47738 4.70669 3.26667 4.19798 3.26667 3.66755Z" fill="white"/>
<path d="M9.8206 7.36129L8.53394 5.64796L9.33394 5.04796L9.9806 5.90796L11.8273 4.32129L12.4806 5.08129L9.8206 7.36129Z" fill="white"/>
</svg>
