<svg width="24" height="24" viewBox="0 0 18 18" fill="none" xmlns="http://www.w3.org/2000/svg">
<path d="M15 0C15.7956 0 16.5587 0.316071 17.1213 0.87868C17.6839 1.44129 18 2.20435 18 3V15C18 15.7956 17.6839 16.5587 17.1213 17.1213C16.5587 17.6839 15.7956 18 15 18H3C2.20435 18 1.44129 17.6839 0.87868 17.1213C0.316071 16.5587 0 15.7956 0 15V3C0 2.20435 0.316071 1.44129 0.87868 0.87868C1.44129 0.316071 2.20435 0 3 0H15ZM13.47 4.97L7 11.44L4.53 8.97C4.38783 8.83752 4.19978 8.7654 4.00548 8.76882C3.81118 8.77225 3.62579 8.85097 3.48838 8.98838C3.35097 9.12579 3.27225 9.31118 3.26883 9.50548C3.2654 9.69978 3.33752 9.88783 3.47 10.03L6.47 13.03C6.61063 13.1705 6.80125 13.2493 7 13.2493C7.19875 13.2493 7.38937 13.1705 7.53 13.03L14.53 6.03C14.6625 5.88783 14.7346 5.69978 14.7312 5.50548C14.7277 5.31118 14.649 5.12579 14.5116 4.98838C14.3742 4.85097 14.1888 4.77225 13.9945 4.76883C13.8002 4.7654 13.6122 4.83752 13.47 4.97Z" />
</svg>
