<svg width="279" height="215" viewBox="0 0 279 215" fill="none" xmlns="http://www.w3.org/2000/svg">
<path d="M249.675 118.464H202.275C203.484 115.562 204.106 112.453 204.104 109.313C204.105 106.022 203.421 102.767 202.097 99.7484H222.976C239.174 99.7484 252.302 87.9969 252.302 73.5003C252.302 59.0038 239.174 47.2533 222.976 47.2533H194.277C197.375 43.0866 199.052 38.052 199.066 32.8788C199.066 18.3897 185.938 6.6626 169.724 6.6626H29.3262C13.129 6.66437 0 18.3915 0 32.888C0 47.3773 13.129 59.128 29.3262 59.128H58.0398C54.942 63.2943 53.2647 68.3284 53.2508 73.5012C53.25 76.792 53.9333 80.0477 55.2582 83.066H34.3873C18.189 83.066 5.06093 94.8175 5.06093 109.314C5.06093 123.811 18.189 135.561 34.3871 135.561H81.7632C80.5523 138.468 79.9305 141.583 79.9334 144.727C79.9334 159.224 93.0623 170.975 109.26 170.975H249.674C265.871 170.975 279 159.224 279 144.727C279.001 130.215 265.872 118.464 249.675 118.464Z" fill="#EAEAEA"/>
<path fill-rule="evenodd" clip-rule="evenodd" d="M200.881 7.0347C200.881 10.9199 204.05 14.0694 207.96 14.0694H207.991C209.865 14.0653 211.66 13.3219 212.982 12.0026C214.303 10.6833 215.044 8.89633 215.04 7.0347C215.04 3.14954 211.87 0 207.96 0C204.05 0 200.881 3.14954 200.881 7.0347ZM62.0037 30.2758C58.0938 30.2758 54.9242 27.1263 54.9242 23.2411C54.9241 19.356 58.0937 16.2064 62.0036 16.2064C65.9135 16.2063 69.0832 19.3558 69.0833 23.2409C69.0874 25.1025 68.3471 26.8895 67.0253 28.2088C65.7034 29.528 63.9083 30.2715 62.0348 30.2756H62.0037V30.2758ZM62.0037 19.4516C59.8971 19.4516 58.1894 21.1485 58.1894 23.2418C58.1894 25.335 59.8971 27.0319 62.0037 27.0319C64.1103 27.0319 65.818 25.335 65.818 23.2418C65.7889 21.1606 64.0981 19.4805 62.0037 19.4516ZM207.956 3.24441C205.863 3.27537 204.175 4.95464 204.146 7.03448C204.239 9.05796 205.917 10.6507 207.956 10.6507C209.994 10.6507 211.673 9.05796 211.766 7.03448C211.737 4.95488 210.048 3.27589 207.956 3.24441ZM207.956 3.24441L207.952 3.24435H207.96L207.956 3.24441ZM127.902 8.97982H131.275V8.95517H131.338C131.762 8.96327 132.167 9.13883 132.461 9.44318C132.756 9.74753 132.916 10.1557 132.908 10.5778C132.888 11.4656 132.169 12.1809 131.275 12.2006H127.902V15.5449C127.911 16.1303 127.602 16.675 127.093 16.9703C126.584 17.2655 125.955 17.2655 125.446 16.9703C124.937 16.675 124.628 16.1303 124.636 15.5449V12.1932H121.263C120.378 12.1706 119.672 11.451 119.672 10.5709C119.672 9.69082 120.378 8.97114 121.263 8.9486H124.636V5.59726C124.628 5.01183 124.937 4.46713 125.446 4.17189C125.955 3.87664 126.584 3.87664 127.093 4.17189C127.602 4.46713 127.911 5.01183 127.902 5.59726V8.97982ZM37.9328 103.654H34.5597V100.302C34.5231 99.4321 33.803 98.7459 32.9271 98.7459C32.0512 98.7459 31.3311 99.4321 31.2945 100.302V103.653H27.8127C27.2194 103.638 26.6646 103.944 26.3635 104.452C26.0624 104.96 26.0624 105.591 26.3635 106.099C26.6646 106.607 27.2194 106.913 27.8127 106.898H31.1858V110.25C31.1858 111.146 31.9167 111.872 32.8184 111.872C33.7201 111.872 34.451 111.146 34.451 110.25V106.898H37.8239C38.7068 106.875 39.4205 106.176 39.4571 105.299C39.4802 104.877 39.3274 104.463 39.0346 104.156C38.7418 103.849 38.3347 103.676 37.909 103.676L37.9328 103.654ZM236.829 57.6311L240.202 57.6309L240.296 57.6318C240.72 57.6481 241.121 57.8313 241.409 58.1411C241.698 58.4509 241.851 58.8618 241.834 59.2835C241.81 60.1695 241.093 60.8822 240.202 60.9064H236.829V64.2281C236.829 65.124 236.098 65.8504 235.196 65.8504C234.294 65.8504 233.563 65.124 233.563 64.2281V60.8764H230.19C229.289 60.8764 228.557 60.1499 228.557 59.2537C228.557 58.3576 229.289 57.6311 230.19 57.6311H233.563V54.3021C233.586 53.4223 234.31 52.7208 235.196 52.7208C236.082 52.7208 236.806 53.4223 236.829 54.3021V57.6311Z" fill="#AFAFAF"/>
<path d="M91.7178 214.427H188.213C192.632 214.427 196.213 210.846 196.213 206.427V83.5226C196.213 80.34 194.949 77.2878 192.699 75.0373L172.629 54.9678C170.379 52.7174 167.326 51.4531 164.144 51.4531H91.7178C87.2995 51.4531 83.7178 55.0348 83.7178 59.4531V206.427C83.7178 210.846 87.2995 214.427 91.7178 214.427Z" fill="white"/>
<path fill-rule="evenodd" clip-rule="evenodd" d="M75 50.0498C75 46.1838 78.134 43.0498 82 43.0498H138.159V75.5145C138.159 80.4851 142.188 84.5145 147.159 84.5145H180.94V151.408H182.94V83.5145V83.0911L182.636 82.7964L139.855 41.3317L139.564 41.0498H139.159H82C77.0294 41.0498 73 45.0792 73 50.0498V188.061C73 193.032 77.0294 197.061 82 197.061H127.868V195.061H82C78.134 195.061 75 191.927 75 188.061V50.0498ZM179.471 82.5145L140.159 44.4117V75.5145C140.159 79.3805 143.293 82.5145 147.159 82.5145H179.471Z" fill="#AFAFAF"/>
<path d="M147 189.138L164.902 207L208 164" stroke="#AFAFAF" stroke-width="2"/>
<line x1="91.4326" y1="104.634" x2="163.545" y2="104.634" stroke="#AFAFAF" stroke-width="2"/>
<line x1="91.4326" y1="122.634" x2="163.545" y2="122.634" stroke="#AFAFAF" stroke-width="2"/>
<line x1="91.4326" y1="140.634" x2="163.545" y2="140.634" stroke="#AFAFAF" stroke-width="2"/>
</svg>
