<svg width="24" height="24" viewBox="0 0 18 18" fill="none" xmlns="http://www.w3.org/2000/svg">
<path d="M2.75 0H15.25C15.9793 0 16.6788 0.289731 17.1945 0.805456C17.7103 1.32118 18 2.02065 18 2.75V15.25C18 15.9793 17.7103 16.6788 17.1945 17.1945C16.6788 17.7103 15.9793 18 15.25 18H2.75C2.02065 18 1.32118 17.7103 0.805456 17.1945C0.289731 16.6788 0 15.9793 0 15.25V2.75C0 2.02065 0.289731 1.32118 0.805456 0.805456C1.32118 0.289731 2.02065 0 2.75 0ZM2.75 1.5C2.06 1.5 1.5 2.06 1.5 2.75V15.25C1.5 15.94 2.06 16.5 2.75 16.5H15.25C15.94 16.5 16.5 15.94 16.5 15.25V2.75C16.5 2.06 15.94 1.5 15.25 1.5H2.75Z" fill="#424242"/>
</svg>
