<svg width="16" height="16" viewBox="0 0 16 16" fill="none" xmlns="http://www.w3.org/2000/svg">
<path d="M13.1752 9.54214L13.1762 9.53906C13.1896 9.49716 13.219 9.46226 13.2581 9.44197C13.2971 9.42168 13.3426 9.41764 13.3846 9.43072L13.3942 9.43372L13.4039 9.43634C13.4254 9.4421 13.4456 9.45211 13.4631 9.46577C13.4807 9.47943 13.4953 9.49647 13.5062 9.51589C13.5171 9.53531 13.524 9.55671 13.5264 9.57882C13.5288 9.59958 13.5271 9.62058 13.5217 9.64071C13.1542 10.7751 12.4329 11.7619 11.4635 12.4565C10.492 13.1526 9.3227 13.5185 8.12768 13.5001L8.12768 13.4999L8.11557 13.5001C6.64128 13.5131 5.22203 12.9408 4.16924 11.9086C3.11775 10.8777 2.5176 9.47231 2.50003 8.00004C2.5176 6.52777 3.11775 5.12233 4.16924 4.09146C5.22203 3.05931 6.64128 2.48697 8.11557 2.50004L8.1199 2.50004C9.47643 2.5003 10.7874 2.98948 11.8125 3.87789L12.4718 4.44926L12.6315 3.59157L12.8112 2.6267C12.8112 2.6265 12.8113 2.6263 12.8113 2.6261C12.8203 2.57982 12.8472 2.53894 12.8862 2.5124L12.6048 2.09907L12.8862 2.5124C12.9056 2.4992 12.9274 2.48996 12.9503 2.48518C12.9733 2.48041 12.997 2.48021 13.02 2.48458C13.043 2.48896 13.065 2.49783 13.0846 2.5107C13.1042 2.52356 13.1211 2.54016 13.1343 2.55954L13.5466 2.27888L13.1343 2.55955C13.1475 2.57894 13.1568 2.60073 13.1615 2.62369C13.1663 2.64666 13.1665 2.67033 13.1621 2.69338L13.1619 2.69456L12.7218 5.04186L11.539 4.06172C10.5785 3.26572 9.36965 2.83116 8.12223 2.83337C6.738 2.81854 5.40422 3.35278 4.41294 4.3192C3.42085 5.28643 2.85281 6.6076 2.83338 7.99303L2.83319 7.99302L2.83338 8.00705C2.85281 9.39247 3.42085 10.7137 4.41294 11.6809C5.40366 12.6468 6.7365 13.1809 8.1199 13.1667C9.23742 13.1786 10.3297 12.8342 11.2384 12.1835C12.1487 11.5316 12.8272 10.6063 13.1752 9.54214ZM11.1382 4.93996L12.6925 5.19783L12.6688 5.32446C12.6536 5.34907 12.6401 5.37546 12.6286 5.40362C12.6195 5.41374 12.6102 5.42484 12.6009 5.43677C12.5963 5.44269 12.5913 5.44945 12.586 5.45703L12.5333 5.47662L12.515 5.49263C12.5099 5.49311 12.5047 5.49336 12.4996 5.49337C12.4995 5.49337 12.4995 5.49337 12.4994 5.49337L12.4277 5.49337L9.64145 5.03338L9.64145 5.03337L9.63837 5.03288C9.61667 5.02944 9.59587 5.02174 9.57716 5.01023C9.55845 4.99872 9.5422 4.98363 9.52934 4.96582C9.51649 4.94801 9.50728 4.92783 9.50225 4.90644C9.49722 4.88506 9.49647 4.86289 9.50004 4.84122L9.50049 4.8384C9.50393 4.81671 9.51163 4.79591 9.52314 4.7772C9.53465 4.75849 9.54974 4.74224 9.56755 4.72938C9.58537 4.71653 9.60555 4.70732 9.62693 4.70229C9.64825 4.69727 9.67035 4.69651 9.69196 4.70004C9.69203 4.70005 9.69209 4.70006 9.69215 4.70007L11.1382 4.93996ZM9.09727 4.51521C9.05123 4.59005 9.02044 4.67326 9.00667 4.76004L9.09727 4.51521Z" stroke="#3376D0"/>
</svg>
