<svg width="247" height="177" viewBox="0 0 247 177" fill="none" xmlns="http://www.w3.org/2000/svg">
<path d="M221.038 105.098H179.075C180.146 102.524 180.696 99.7653 180.694 96.9801C180.695 94.0606 180.09 91.1722 178.917 88.4945H197.401C211.742 88.4945 223.364 78.0687 223.364 65.2077C223.364 52.3467 211.742 41.9219 197.401 41.9219H171.994C174.737 38.2253 176.222 33.7587 176.234 29.1692C176.234 16.3147 164.612 5.91064 150.258 5.91064H25.9626C11.6231 5.91221 0 16.3163 0 29.1773C0 42.0319 11.6231 52.4569 25.9626 52.4569H51.3829C48.6404 56.1531 47.1555 60.6193 47.1432 65.2085C47.1425 68.128 47.7474 71.0164 48.9203 73.6941H30.4432C16.1028 73.6941 4.48047 84.1199 4.48047 96.9809C4.48047 109.842 16.1028 120.267 30.4431 120.267H72.3853C71.3133 122.846 70.7629 125.609 70.7654 128.399C70.7654 141.26 82.3885 151.685 96.728 151.685H221.037C235.377 151.685 247 141.26 247 128.399C247.001 115.523 235.378 105.098 221.038 105.098Z" fill="#EAEAEA"/>
<path d="M111.218 110.339C134.205 110.339 152.84 91.7373 152.84 68.7914C152.84 45.8455 134.205 27.2441 111.218 27.2441C88.2313 27.2441 69.5967 45.8455 69.5967 68.7914C69.5967 91.7373 88.2313 110.339 111.218 110.339Z" fill="white"/>
<path fill-rule="evenodd" clip-rule="evenodd" d="M177.841 6.24104C177.841 9.68787 180.647 12.4821 184.108 12.4821H184.136C185.794 12.4785 187.384 11.8189 188.554 10.6485C189.724 9.47803 190.38 7.89264 190.376 6.24104C190.376 2.79421 187.57 0 184.108 0C180.647 0 177.841 2.79421 177.841 6.24104ZM54.8925 26.86C51.431 26.86 48.6249 24.0659 48.6249 20.6191C48.6249 17.1722 51.4309 14.378 54.8924 14.378C58.3538 14.3779 61.16 17.172 61.16 20.6188C61.1637 22.2704 60.5083 23.8558 59.3381 25.0263C58.1678 26.1967 56.5786 26.8563 54.92 26.8599H54.8925V26.86ZM54.8925 17.2571C53.0275 17.2571 51.5157 18.7626 51.5157 20.6197C51.5157 22.4767 53.0275 23.9822 54.8925 23.9822C56.7574 23.9822 58.2693 22.4767 58.2693 20.6197C58.2435 18.7733 56.7467 17.2828 54.8925 17.2571ZM184.105 2.87843C182.252 2.90589 180.757 4.39571 180.731 6.24089C180.814 8.03609 182.3 9.44916 184.105 9.44916C185.909 9.44916 187.395 8.03609 187.478 6.24089C187.452 4.39592 185.957 2.90635 184.105 2.87843ZM184.105 2.87843L184.101 2.87837H184.108L184.105 2.87843ZM113.233 7.9667H116.219V7.94482H116.274C116.65 7.95201 117.008 8.10777 117.269 8.37778C117.529 8.64779 117.672 9.00991 117.664 9.3844C117.647 10.172 117.01 10.8066 116.219 10.8241H113.233V13.7911C113.241 14.3105 112.967 14.7937 112.516 15.0556C112.066 15.3176 111.509 15.3176 111.058 15.0556C110.608 14.7937 110.334 14.3105 110.342 13.7911V10.8175H107.355C106.572 10.7975 105.947 10.159 105.947 9.37826C105.947 8.59748 106.572 7.95899 107.355 7.939H110.342V4.96576C110.334 4.44638 110.608 3.96313 111.058 3.7012C111.509 3.43926 112.066 3.43926 112.516 3.7012C112.967 3.96313 113.241 4.44638 113.233 4.96576V7.9667ZM33.5824 91.9593H30.5962V88.9856C30.5638 88.2141 29.9263 87.6053 29.1508 87.6053C28.3754 87.6053 27.7378 88.2141 27.7054 88.9856V91.9592H24.623C24.0978 91.9458 23.6066 92.2171 23.3401 92.668C23.0735 93.1188 23.0735 93.6781 23.3401 94.1289C23.6066 94.5798 24.0978 94.8511 24.623 94.8377H27.6092V97.8113C27.6092 98.6061 28.2563 99.2505 29.0546 99.2505C29.8528 99.2505 30.5 98.6061 30.5 97.8113V94.8379H33.486C34.2676 94.817 34.8995 94.197 34.9318 93.4191C34.9523 93.0444 34.8171 92.6778 34.5578 92.4054C34.2986 92.1331 33.9382 91.979 33.5614 91.9793L33.5824 91.9593ZM209.666 51.1292L212.652 51.129L212.735 51.1298C213.111 51.1443 213.466 51.3068 213.721 51.5816C213.976 51.8564 214.112 52.2211 214.097 52.5952C214.076 53.3812 213.441 54.0135 212.652 54.0349H209.666V56.9819C209.666 57.7768 209.019 58.4212 208.221 58.4212C207.422 58.4212 206.775 57.7768 206.775 56.9819V54.0083H203.789C202.991 54.0083 202.343 53.3638 202.343 52.5688C202.343 51.7737 202.991 51.1292 203.789 51.1292H206.775V48.1758C206.795 47.3952 207.436 46.7729 208.221 46.7729C209.005 46.7729 209.646 47.3952 209.666 48.1758V51.1292Z" fill="#AFAFAF"/>
<path d="M110.5 100C127.897 100 142 85.897 142 68.5C142 51.103 127.897 37 110.5 37C93.103 37 79 51.103 79 68.5C79 85.897 93.103 100 110.5 100Z" stroke="#AFAFAF" stroke-width="2" stroke-miterlimit="10"/>
<path d="M165 162C165 147.678 159.311 133.943 149.184 123.816C139.057 113.689 125.322 108 111 108C96.6783 108 82.9432 113.689 72.8162 123.816C62.6893 133.943 57 147.678 57 162L111 162H165Z" stroke="#AFAFAF" stroke-width="2"/>
<path d="M171 176C187.569 176 201 162.569 201 146C201 129.431 187.569 116 171 116C154.431 116 141 129.431 141 146C141 162.569 154.431 176 171 176Z" fill="white" stroke="#AFAFAF" stroke-width="2" stroke-miterlimit="10"/>
<line x1="158.414" y1="133" x2="184" y2="158.586" stroke="#AFAFAF" stroke-width="2" stroke-linecap="round"/>
<line x1="158" y1="158.586" x2="183.586" y2="133" stroke="#AFAFAF" stroke-width="2" stroke-linecap="round"/>
</svg>
