<svg width="54" height="54" viewBox="0 0 54 54" fill="none" xmlns="http://www.w3.org/2000/svg">
<rect width="54" height="54" rx="27" fill="#F04D4D"/>
<path d="M25 32.1C24.6 32.1 24.2 31.8 24.2 31.3V25.3C24.2 24.9 24.5 24.5 25 24.5C25.5 24.5 25.8 24.8 25.8 25.3V31.3C25.8 31.8 25.4 32.1 25 32.1Z" fill="white"/>
<path d="M29 32.1C28.6 32.1 28.2 31.8 28.2 31.3V25.3C28.2 24.9 28.5 24.5 29 24.5C29.5 24.5 29.8 24.8 29.8 25.3V31.3C29.8 31.8 29.4 32.1 29 32.1Z" fill="white"/>
<path d="M36 20.8H33.1H31V19C31 18.4 30.6 18 30 18H24C23.4 18 23 18.4 23 19V20.7H20.9H18C17.6 20.7 17.2 21 17.2 21.5C17.2 22 17.6 22.2 18 22.2H20V34C20 35.1 20.9 36 21.9 36H32C33.1 36 33.9 35.1 33.9 34.1V22.2H35.9C36.2999 22.2 36.7 21.9 36.7 21.4C36.7 20.9 36.4 20.8 36 20.8ZM24.5 19.5H29.5V20.7H24.5V19.5ZM32.5 34.1C32.5 34.3 32.3 34.5 32.1 34.5H21.9C21.7 34.5 21.5 34.3 21.5 34.1V22.2H32.5V34.1Z" fill="white"/>
</svg>
