<svg width="12" height="12" viewBox="0 0 12 12" fill="none" xmlns="http://www.w3.org/2000/svg">
<path d="M8.86666 0.666667L7.86666 1.66667L7.46666 2.06667L2.33333 7.33333V9.73333H4.73333L5.4 9.06667L11.7333 2.6C12 2.33333 12 1.86667 11.7333 1.53333L11.4 1.2L10.8667 0.666667L10.4 0.2C10.1333 -0.0666667 9.66666 -0.0666667 9.33333 0.2L8.86666 0.666667ZM4.26666 8.73333H3.33333V7.73333L8.2 2.8L9.13333 3.73333L9.19999 3.8L4.26666 8.73333ZM10.8667 2.13333L9.86666 3.13333L8.86666 2.13333L9.86666 1.13333L10.8667 2.13333Z" fill="#3376D0"/>
<path d="M9.73333 6.06671V11H1.06667V2.33337H5.86667L6.8 1.33337H0.733332C0.399999 1.33337 0.0666656 1.66671 0.0666656 2.00004V11.3334C0.0666656 11.6667 0.399999 12 0.733332 12H10.0667C10.4 12 10.7333 11.6667 10.7333 11.3334V5.06671L9.73333 6.06671Z" fill="#3376D0"/>
</svg>
