<svg width="181" height="128" viewBox="0 0 181 128" fill="none" xmlns="http://www.w3.org/2000/svg">
<path d="M161.975 77.1531H131.225C132.01 75.2629 132.413 73.238 132.412 71.1934C132.412 69.0501 131.969 66.9297 131.109 64.964H144.655C155.163 64.964 163.68 57.3104 163.68 47.8691C163.68 38.4277 155.163 30.7749 144.655 30.7749H126.036C128.046 28.0612 129.134 24.7823 129.143 21.413C129.143 11.9765 120.626 4.33887 110.108 4.33887H19.0252C8.51736 4.34002 0 11.9777 0 21.419C0 30.8556 8.51736 38.5086 19.0252 38.5086H37.6531C35.6434 41.2221 34.5553 44.5007 34.5462 47.8697C34.5457 50.0129 34.989 52.1333 35.8485 54.099H22.3086C11.8 54.099 3.28326 61.7526 3.28326 71.1939C3.28326 80.6353 11.8 88.2883 22.3085 88.2883H53.0435C52.2579 90.1817 51.8546 92.21 51.8564 94.258C51.8564 103.699 60.3738 111.352 70.8816 111.352H161.975C172.483 111.352 181 103.699 181 94.258C181.001 84.806 172.483 77.1531 161.975 77.1531Z" fill="#EAEAEA"/>
<path d="M84.5438 87.5396C103.187 87.5396 118.3 72.4625 118.3 53.864C118.3 35.2655 103.187 20.1885 84.5438 20.1885C65.9005 20.1885 50.7871 35.2655 50.7871 53.864C50.7871 72.4625 65.9005 87.5396 84.5438 87.5396Z" fill="white"/>
<path d="M80.2489 87.5396C98.8922 87.5396 114.006 72.4625 114.006 53.864C114.006 35.2655 98.8922 20.1885 80.2489 20.1885C61.6056 20.1885 46.4922 35.2655 46.4922 53.864C46.4922 72.4625 61.6056 87.5396 80.2489 87.5396Z" stroke="#AFAFAF" stroke-width="2" stroke-miterlimit="10"/>
<path d="M140.688 125.119L109.425 93.9312C108.188 92.6974 108.188 90.6749 109.425 89.4209L114.757 84.1016C115.973 82.888 117.96 82.888 119.177 84.1016L149.852 114.703C152.73 117.575 152.73 122.247 149.852 125.119C147.338 127.627 143.222 127.627 140.688 125.119Z" stroke="#B4B5B5" stroke-width="2" stroke-miterlimit="10"/>
<path d="M103.361 78.3975L112.627 87.5394" stroke="#AFAFAF" stroke-width="2" stroke-miterlimit="10"/>
<path d="M140.688 125.119L109.425 93.9312C108.188 92.6974 108.188 90.6749 109.425 89.4209L114.757 84.1016C115.973 82.888 117.96 82.888 119.177 84.1016L149.852 114.703C152.73 117.575 152.73 122.247 149.852 125.119C147.338 127.627 143.222 127.627 140.688 125.119Z" fill="white" stroke="#AFAFAF" stroke-width="2" stroke-miterlimit="10"/>
<path fill-rule="evenodd" clip-rule="evenodd" d="M130.321 4.58157C130.321 7.11191 132.377 9.16315 134.914 9.16315H134.934C136.149 9.16048 137.314 8.67629 138.171 7.81707C139.029 6.95786 139.509 5.79402 139.506 4.58157C139.506 2.05124 137.45 0 134.914 0C132.377 0 130.321 2.05124 130.321 4.58157ZM40.2249 19.7181C37.6884 19.7181 35.6321 17.6668 35.6321 15.1365C35.6321 12.6062 37.6883 10.555 40.2249 10.5549C42.7614 10.5549 44.8177 12.6061 44.8178 15.1364C44.8204 16.3488 44.3402 17.5127 43.4826 18.3719C42.6251 19.2311 41.4605 19.7153 40.2451 19.7179H40.2249V19.7181ZM40.2249 12.6685C38.8583 12.6685 37.7504 13.7737 37.7504 15.137C37.7504 16.5002 38.8583 17.6054 40.2249 17.6054C41.5916 17.6054 42.6995 16.5002 42.6995 15.137C42.6806 13.7816 41.5837 12.6873 40.2249 12.6685ZM134.911 2.11306C133.553 2.13323 132.458 3.22691 132.439 4.58147C132.5 5.89933 133.588 6.93666 134.911 6.93666C136.233 6.93666 137.322 5.89933 137.383 4.58147C137.364 3.22706 136.268 2.13357 134.911 2.11306ZM134.911 2.11306L134.908 2.11303H134.914L134.911 2.11306ZM82.9764 5.84838H85.1647V5.83232H85.205C85.4806 5.8376 85.7428 5.95194 85.9338 6.15015C86.1249 6.34837 86.2291 6.61421 86.2235 6.88912C86.211 7.46732 85.7443 7.93318 85.1647 7.94603H82.9764V10.1241C82.9821 10.5054 82.7814 10.8601 82.4513 11.0524C82.1212 11.2447 81.7129 11.2447 81.3828 11.0524C81.0527 10.8601 80.852 10.5054 80.8577 10.1241V7.94118H78.6694C78.095 7.9265 77.637 7.45779 77.637 6.88461C77.637 6.31144 78.095 5.84272 78.6694 5.82805H80.8577V3.64538C80.852 3.2641 81.0527 2.90934 81.3828 2.71706C81.7129 2.52477 82.1212 2.52477 82.4513 2.71706C82.7814 2.90934 82.9821 3.2641 82.9764 3.64538V5.84838ZM24.609 67.5077H22.4208V65.3247C22.397 64.7584 21.9299 64.3114 21.3616 64.3114C20.7934 64.3114 20.3262 64.7584 20.3025 65.3247V67.5076H18.0437C17.6588 67.4978 17.2989 67.697 17.1035 68.0279C16.9082 68.3589 16.9082 68.7695 17.1035 69.1004C17.2989 69.4314 17.6588 69.6306 18.0437 69.6208H20.2319V71.8037C20.2319 72.3872 20.7061 72.8602 21.2911 72.8602C21.8761 72.8602 22.3503 72.3872 22.3503 71.8037V69.6209H24.5384C25.1112 69.6056 25.5742 69.1504 25.5979 68.5793C25.6129 68.3043 25.5138 68.0351 25.3238 67.8352C25.1339 67.6353 24.8698 67.5222 24.5936 67.5224L24.609 67.5077ZM153.642 37.5341L155.83 37.534L155.891 37.5346C156.167 37.5452 156.426 37.6645 156.614 37.8663C156.801 38.068 156.9 38.3357 156.889 38.6103C156.874 39.1873 156.408 39.6515 155.83 39.6673H153.642V41.8306C153.642 42.4142 153.168 42.8872 152.583 42.8872C151.998 42.8872 151.524 42.4142 151.524 41.8306V39.6477H149.335C148.75 39.6477 148.276 39.1746 148.276 38.5909C148.276 38.0073 148.75 37.5341 149.335 37.5341H151.524V35.366C151.538 34.793 152.008 34.3362 152.583 34.3362C153.157 34.3362 153.627 34.793 153.642 35.366V37.5341Z" fill="#AFAFAF"/>
<path d="M72.502 46.1455L90.247 63.8546" stroke="#AFAFAF" stroke-width="2" stroke-miterlimit="50" stroke-linecap="round" stroke-linejoin="round"/>
<path d="M90.247 46.1455L72.502 63.8546" stroke="#AFAFAF" stroke-width="2" stroke-miterlimit="50" stroke-linecap="round" stroke-linejoin="round"/>
<path d="M113.936 99.037L123.82 89.1729" stroke="#AFAFAF" stroke-width="2"/>
</svg>
