<svg width="21" height="20" viewBox="0 0 21 20" fill="none" xmlns="http://www.w3.org/2000/svg">
<path d="M17.1667 2.5H3.83333C3.61232 2.5 3.40036 2.5878 3.24408 2.74408C3.0878 2.90036 3 3.11232 3 3.33333V16.6667C3 16.8877 3.0878 17.0996 3.24408 17.2559C3.40036 17.4122 3.61232 17.5 3.83333 17.5H17.1667C17.3877 17.5 17.5996 17.4122 17.7559 17.2559C17.9122 17.0996 18 16.8877 18 16.6667V3.33333C18 3.11232 17.9122 2.90036 17.7559 2.74408C17.5996 2.5878 17.3877 2.5 17.1667 2.5ZM4.25 3.75H6.95833V16.25H4.25V3.75ZM16.75 16.25H8.20833V7.70833H16.75V16.25ZM16.75 6.45833H8.20833V3.75H16.75V6.45833Z" fill="#FF4F01"/>
</svg>
