<svg width="12" height="12" viewBox="0 0 12 12" fill="none" xmlns="http://www.w3.org/2000/svg">
<path d="M0.93934 0.93934C1.22064 0.658035 1.60218 0.5 2 0.5H5.33333C5.37754 0.5 5.41993 0.517559 5.45118 0.548816C5.48244 0.580071 5.5 0.622463 5.5 0.666667C5.5 0.71087 5.48244 0.753262 5.45118 0.784518C5.41993 0.815774 5.37754 0.833333 5.33333 0.833333H2C1.69058 0.833333 1.39383 0.95625 1.17504 1.17504C0.95625 1.39383 0.833333 1.69058 0.833333 2V10C0.833333 10.3094 0.956249 10.6062 1.17504 10.825C1.39384 11.0438 1.69058 11.1667 2 11.1667H5.33333C5.37754 11.1667 5.41993 11.1842 5.45118 11.2155C5.48244 11.2467 5.5 11.2891 5.5 11.3333C5.5 11.3775 5.48244 11.4199 5.45119 11.4512C5.41993 11.4824 5.37754 11.5 5.33333 11.5H2C1.60218 11.5 1.22064 11.342 0.93934 11.0607C0.658035 10.7794 0.5 10.3978 0.5 10V2C0.5 1.60218 0.658035 1.22064 0.93934 0.93934Z"/>
<path d="M8.54894 3.45135L10.0776 4.97996L10.9311 5.83352H9.724H4.66667C4.62246 5.83352 4.58007 5.85108 4.54882 5.88233C4.51756 5.91359 4.5 5.95598 4.5 6.00018C4.5 6.04439 4.51756 6.08678 4.54882 6.11803C4.58007 6.14929 4.62246 6.16685 4.66667 6.16685H9.724H10.9311L10.0776 7.0204L8.55298 8.54497C8.52388 8.57617 8.50783 8.61737 8.5082 8.66011C8.50858 8.70381 8.52611 8.74561 8.55701 8.77651C8.58791 8.80741 8.62971 8.82494 8.67341 8.82532C8.71615 8.82569 8.75735 8.80963 8.78855 8.78053L11.4511 6.11802C11.4823 6.08676 11.4999 6.04438 11.4999 6.00018C11.4999 5.95599 11.4823 5.9136 11.4511 5.88235L8.7845 3.21579C8.78448 3.21577 8.78446 3.21575 8.78445 3.21574C8.7532 3.18453 8.71084 3.16699 8.66667 3.16699C8.6225 3.16699 8.58014 3.18452 8.54889 3.21574C8.54887 3.21575 8.54885 3.21577 8.54883 3.21579M8.54894 3.45135L8.19533 3.80485C8.07035 3.67983 8.00014 3.51029 8.00014 3.33352C8.00014 3.15674 8.07035 2.9872 8.19533 2.86218L8.54883 3.21579M8.54894 3.45135C8.54892 3.45133 8.5489 3.45131 8.54889 3.4513M8.54894 3.45135L8.54889 3.4513M8.54883 3.21579C8.51765 3.24704 8.50014 3.28937 8.50014 3.33352C8.50014 3.37768 8.51767 3.42005 8.54889 3.4513M8.54883 3.21579L8.54889 3.4513" stroke="none"/>
</svg>
