<svg width="18" height="14" viewBox="0 0 18 14" fill="none" xmlns="http://www.w3.org/2000/svg">
<path d="M16.5 0.333008H1.50001C1.00001 0.333008 0.666672 0.666341 0.666672 1.16634V12.833C0.666672 13.333 1.00001 13.6663 1.50001 13.6663H16.5C17 13.6663 17.3333 13.333 17.3333 12.833V1.16634C17.3333 0.666341 17 0.333008 16.5 0.333008ZM14.9167 1.58301L9.08334 6.08301C9.00001 6.16634 8.91667 6.16634 8.83334 6.08301L3.00001 1.58301H14.9167ZM1.91667 12.4163V2.24967L8.08334 7.08301C8.33334 7.24967 8.66667 7.41634 9.00001 7.41634C9.33334 7.41634 9.66667 7.33301 9.91667 7.08301L16.0833 2.24967V12.4163H1.91667Z"/>
</svg>
