<svg width="51" height="20" viewBox="0 0 51 20" fill="none" xmlns="http://www.w3.org/2000/svg">
<path d="M9.35854 15.0267C12.6074 15.0267 14.6936 11.8889 14.6936 9.14564C14.6936 6.79896 13.2672 5.05804 10.6524 5.05804C7.43039 5.05804 5.31716 8.19661 5.31716 10.9392C5.31716 13.2861 6.74324 15.0267 9.35854 15.0267ZM19.2714 19.2729L23.0486 5.29556H19.2061C19.6723 6.33816 19.9233 7.50519 19.9233 8.75021C19.9233 14.3675 15.3272 19.6162 8.9093 19.6162C3.6529 19.6162 0.0874023 16.0291 0.0874023 11.3354C0.0874023 5.71727 4.68311 0.469116 11.1009 0.469116C14.0455 0.469116 16.4591 1.59486 18.013 3.40981L18.7168 0.8121H34.9079L34.2903 3.14204C36.3162 1.475 39.0193 0.442383 42.1711 0.442383C45.8696 0.442383 48.5632 1.94622 49.8314 3.58108L46.3979 6.90427C45.3143 5.82303 43.8093 5.00545 41.8282 5.00545C38.1041 5.00545 35.5421 7.87975 35.5421 11.2821C35.5421 13.8664 37.4171 15.2113 39.6888 15.2113C40.7187 15.2113 41.5112 15.0006 42.1447 14.7104L42.8846 12.2312H37.1006L38.078 8.48637H48.7744L46.1338 17.7964C44.3108 18.8509 41.9337 19.6424 39.2132 19.6424C34.8027 19.6424 30.3123 17.1629 30.3123 11.4931C30.3123 9.2386 31.0183 7.08935 32.2867 5.29556H28.1732L24.4219 19.2729H19.2714Z" fill="#FF4F01"/>
<path d="M46.644 18.5768C46.644 17.9665 47.1397 17.5166 47.7253 17.5166C48.3053 17.5166 48.8011 17.9664 48.8011 18.5768C48.8011 19.1924 48.3053 19.6423 47.7253 19.6423C47.1397 19.6423 46.644 19.1924 46.644 18.5768ZM47.7253 19.4651C48.2068 19.4651 48.5869 19.0884 48.5869 18.5768C48.5869 18.0733 48.2068 17.6938 47.7253 17.6938C47.2381 17.6938 46.858 18.0733 46.858 18.5768C46.858 19.0884 47.2381 19.4651 47.7253 19.4651ZM47.5002 19.1924H47.3143V17.9664H47.7818C48.0719 17.9664 48.2153 18.0733 48.2153 18.315C48.2153 18.5344 48.0773 18.63 47.8971 18.6525L48.2462 19.1924H48.0379L47.7141 18.661H47.5002V19.1924ZM47.7225 18.5036C47.8802 18.5036 48.021 18.4924 48.021 18.304C48.021 18.1522 47.883 18.124 47.7536 18.124H47.5001V18.5036H47.7225Z" fill="#FF4F01"/>
</svg>
