<svg width="8" height="11" viewBox="0 0 8 11" fill="none" xmlns="http://www.w3.org/2000/svg">
<path d="M0.750266 10.96C0.649138 10.9574 0.549512 10.9349 0.45708 10.8938C0.364649 10.8527 0.281224 10.7938 0.211574 10.7204C0.141923 10.647 0.0874126 10.5607 0.0511554 10.4662C0.0148983 10.3718 -0.00239439 10.2711 0.000266407 10.17V0.75C0.000266407 0.551088 0.0792844 0.360322 0.219937 0.21967C0.360589 0.0790175 0.551354 0 0.750266 0C0.949179 0 1.13994 0.0790175 1.2806 0.21967C1.42125 0.360322 1.50027 0.551088 1.50027 0.75V10.17C1.50293 10.2711 1.48563 10.3718 1.44938 10.4662C1.41312 10.5607 1.35861 10.647 1.28896 10.7204C1.21931 10.7938 1.13588 10.8527 1.04345 10.8938C0.951021 10.9349 0.851395 10.9574 0.750266 10.96Z"/>
<path d="M7.25027 10.96C7.14914 10.9574 7.04951 10.9349 6.95708 10.8938C6.86465 10.8527 6.78122 10.7938 6.71157 10.7204C6.64192 10.647 6.58741 10.5607 6.55116 10.4662C6.5149 10.3718 6.49761 10.2711 6.50027 10.17V0.75C6.50027 0.551088 6.57928 0.360322 6.71994 0.21967C6.86059 0.0790175 7.05135 0 7.25027 0C7.44918 0 7.63994 0.0790175 7.7806 0.21967C7.92125 0.360322 8.00027 0.551088 8.00027 0.75V10.17C8.00293 10.2711 7.98563 10.3718 7.94938 10.4662C7.91312 10.5607 7.85861 10.647 7.78896 10.7204C7.71931 10.7938 7.63588 10.8527 7.54345 10.8938C7.45102 10.9349 7.35139 10.9574 7.25027 10.96Z" />
</svg>
