<svg width="13" height="12" viewBox="0 0 13 12" fill="none" xmlns="http://www.w3.org/2000/svg">
<mask id="path-1-inside-1" fill="white">
<path d="M2.57216 1.07661C2.49601 1.03524 2.41041 1.01438 2.32376 1.01606C2.23711 1.01775 2.15239 1.04193 2.0779 1.08623C2.00342 1.13054 1.94173 1.19344 1.89888 1.26877C1.85603 1.3441 1.8335 1.42928 1.8335 1.51594V10.4839C1.8335 10.5706 1.85603 10.6558 1.89888 10.7311C1.94173 10.8064 2.00342 10.8693 2.0779 10.9136C2.15239 10.958 2.23711 10.9821 2.32376 10.9838C2.41041 10.9855 2.49601 10.9646 2.57216 10.9233L10.8135 6.43928C10.8925 6.39632 10.9585 6.33284 11.0045 6.25552C11.0505 6.1782 11.0748 6.0899 11.0748 5.99994C11.0748 5.90998 11.0505 5.82168 11.0045 5.74436C10.9585 5.66704 10.8925 5.60356 10.8135 5.56061L2.57216 1.07661ZM0.833496 1.51594C0.833496 0.377941 2.05083 -0.345392 3.05016 0.197941L11.2915 4.68194C12.3355 5.25061 12.3355 6.74927 11.2915 7.31728L3.05016 11.8013C2.05083 12.3453 0.833496 11.6213 0.833496 10.4839V1.51594Z"/>
</mask>
<path d="M2.57216 1.07661L3.05009 0.198207L3.0495 0.197886L2.57216 1.07661ZM1.8335 1.51594L0.833496 1.51589V1.51594H1.8335ZM1.8335 10.4839H0.833496L0.833496 10.484L1.8335 10.4839ZM2.57216 10.9233L3.0495 11.802L3.05009 11.8017L2.57216 10.9233ZM10.8135 6.43928L10.3361 5.56061L10.3356 5.56087L10.8135 6.43928ZM10.8135 5.56061L10.3356 6.43901L10.3361 6.43927L10.8135 5.56061ZM3.05016 0.197941L3.52809 -0.680459L3.52782 -0.680603L3.05016 0.197941ZM11.2915 4.68194L11.7698 3.80377L11.7694 3.80354L11.2915 4.68194ZM11.2915 7.31728L10.8136 6.43887L10.8136 6.43887L11.2915 7.31728ZM3.05016 11.8013L2.57224 10.9229L2.57205 10.923L3.05016 11.8013ZM3.0495 0.197886C2.82103 0.0737813 2.56424 0.0111911 2.30429 0.0162534L2.34323 2.01587C2.25658 2.01756 2.17098 1.9967 2.09483 1.95533L3.0495 0.197886ZM2.30429 0.0162534C2.04434 0.0213157 1.79018 0.093858 1.56672 0.226762L2.58909 1.9457C2.5146 1.99001 2.42988 2.01419 2.34323 2.01587L2.30429 0.0162534ZM1.56672 0.226762C1.34326 0.359667 1.15819 0.548372 1.02964 0.774368L2.76811 1.76317C2.72527 1.8385 2.66357 1.9014 2.58909 1.9457L1.56672 0.226762ZM1.02964 0.774368C0.901103 1.00036 0.833511 1.25589 0.833496 1.51589L2.8335 1.516C2.83349 1.60266 2.81096 1.68784 2.76811 1.76317L1.02964 0.774368ZM0.833496 1.51594V10.4839H2.8335V1.51594H0.833496ZM0.833496 10.484C0.833511 10.744 0.901104 10.9995 1.02964 11.2255L2.76811 10.2367C2.81096 10.312 2.83349 10.3972 2.8335 10.4839L0.833496 10.484ZM1.02964 11.2255C1.15818 11.4515 1.34326 11.6402 1.56672 11.7731L2.58909 10.0542C2.66358 10.0985 2.72527 10.1614 2.76811 10.2367L1.02964 11.2255ZM1.56672 11.7731C1.79017 11.906 2.04434 11.9786 2.30429 11.9836L2.34323 9.98401C2.42988 9.9857 2.51461 10.0099 2.58909 10.0542L1.56672 11.7731ZM2.30429 11.9836C2.56424 11.9887 2.82103 11.9261 3.0495 11.802L2.09483 10.0446C2.17098 10.0032 2.25658 9.98232 2.34323 9.98401L2.30429 11.9836ZM3.05009 11.8017L11.2914 7.31768L10.3356 5.56087L2.09424 10.0449L3.05009 11.8017ZM11.2909 7.31794C11.5281 7.18909 11.7261 6.99864 11.864 6.76668L10.145 5.74436C10.191 5.66704 10.257 5.60356 10.3361 5.56061L11.2909 7.31794ZM11.864 6.76668C12.002 6.53471 12.0748 6.26983 12.0748 5.99994H10.0748C10.0748 5.90998 10.0991 5.82168 10.145 5.74436L11.864 6.76668ZM12.0748 5.99994C12.0748 5.73006 12.002 5.46517 11.864 5.2332L10.145 6.25552C10.0991 6.1782 10.0748 6.0899 10.0748 5.99994H12.0748ZM11.864 5.2332C11.7261 5.00124 11.5281 4.81079 11.2909 4.68194L10.3361 6.43927C10.257 6.39632 10.191 6.33284 10.145 6.25552L11.864 5.2332ZM11.2914 4.68221L3.05009 0.198208L2.09424 1.95501L10.3356 6.43901L11.2914 4.68221ZM1.8335 1.51594C1.8335 1.1366 2.23934 0.895344 2.5725 1.07649L3.52782 -0.680603C1.86232 -1.58613 -0.166504 -0.380718 -0.166504 1.51594H1.8335ZM2.57224 1.07634L10.8136 5.56034L11.7694 3.80354L3.52809 -0.680459L2.57224 1.07634ZM10.8132 5.56012C11.162 5.75014 11.1611 6.24982 10.8136 6.43887L11.7694 8.19568C13.5099 7.24873 13.509 4.75107 11.7698 3.80377L10.8132 5.56012ZM10.8136 6.43887L2.57224 10.9229L3.52809 12.6797L11.7694 8.19567L10.8136 6.43887ZM2.57205 10.923C2.23949 11.104 1.8335 10.8631 1.8335 10.4839H-0.166504C-0.166504 12.3795 1.86217 13.5865 3.52828 12.6796L2.57205 10.923ZM1.8335 10.4839V1.51594H-0.166504V10.4839H1.8335Z" fill="white" mask="url(#path-1-inside-1)"/>
</svg>
