<svg width="12" height="14" viewBox="0 0 12 14" fill="none" xmlns="http://www.w3.org/2000/svg">
<mask id="path-1-inside-1" fill="white">
<path d="M6.33329 5.8335C6.33329 5.70089 6.38597 5.57371 6.47974 5.47994C6.57351 5.38618 6.70068 5.3335 6.83329 5.3335H9.16663C9.29923 5.3335 9.42641 5.38618 9.52018 5.47994C9.61395 5.57371 9.66663 5.70089 9.66663 5.8335C9.66663 5.9661 9.61395 6.09328 9.52018 6.18705C9.42641 6.28082 9.29923 6.3335 9.16663 6.3335H6.83329C6.70068 6.3335 6.57351 6.28082 6.47974 6.18705C6.38597 6.09328 6.33329 5.9661 6.33329 5.8335ZM6.83329 9.00016C6.70068 9.00016 6.57351 9.05284 6.47974 9.14661C6.38597 9.24038 6.33329 9.36755 6.33329 9.50016C6.33329 9.63277 6.38597 9.75995 6.47974 9.85372C6.57351 9.94748 6.70068 10.0002 6.83329 10.0002H9.16663C9.29923 10.0002 9.42641 9.94748 9.52018 9.85372C9.61395 9.75995 9.66663 9.63277 9.66663 9.50016C9.66663 9.36755 9.61395 9.24038 9.52018 9.14661C9.42641 9.05284 9.29923 9.00016 9.16663 9.00016H6.83329ZM5.18663 5.52016C5.23575 5.47439 5.27515 5.41919 5.30248 5.35785C5.32981 5.29652 5.3445 5.23031 5.34569 5.16318C5.34687 5.09604 5.33452 5.02936 5.30937 4.9671C5.28423 4.90484 5.2468 4.84828 5.19932 4.8008C5.15184 4.75332 5.09528 4.7159 5.03302 4.69075C4.97077 4.6656 4.90408 4.65325 4.83694 4.65444C4.76981 4.65562 4.7036 4.67031 4.64227 4.69764C4.58093 4.72497 4.52573 4.76437 4.47996 4.8135L3.49996 5.7935L3.18663 5.48016C3.09184 5.39184 2.96648 5.34376 2.83694 5.34605C2.70741 5.34833 2.58382 5.40081 2.49221 5.49242C2.4006 5.58402 2.34813 5.70761 2.34584 5.83715C2.34356 5.96668 2.39164 6.09205 2.47996 6.18683L3.14663 6.8535C3.24038 6.94713 3.36746 6.99972 3.49996 6.99972C3.63246 6.99972 3.75954 6.94713 3.85329 6.8535L5.18663 5.52016ZM5.18663 8.48016C5.28026 8.57391 5.33285 8.701 5.33285 8.8335C5.33285 8.966 5.28026 9.09308 5.18663 9.18683L3.85329 10.5202C3.75954 10.6138 3.63246 10.6664 3.49996 10.6664C3.36746 10.6664 3.24038 10.6138 3.14663 10.5202L2.47996 9.8535C2.43083 9.80772 2.39143 9.75252 2.36411 9.69119C2.33678 9.62986 2.32208 9.56365 2.3209 9.49651C2.31971 9.42938 2.33206 9.36269 2.35721 9.30043C2.38236 9.23817 2.41979 9.18162 2.46727 9.13414C2.51475 9.08666 2.5713 9.04923 2.63356 9.02408C2.69582 8.99893 2.76251 8.98658 2.82964 8.98777C2.89678 8.98895 2.96299 9.00365 3.02432 9.03098C3.08565 9.0583 3.14085 9.0977 3.18663 9.14683L3.49996 9.46016L4.47996 8.48016C4.57371 8.38653 4.70079 8.33394 4.83329 8.33394C4.96579 8.33394 5.09288 8.38653 5.18663 8.48016ZM8.66263 1.72283C8.63469 1.34518 8.46494 0.99207 8.18747 0.734376C7.90999 0.476681 7.54531 0.333474 7.16663 0.333496H4.83329C4.46433 0.333507 4.10832 0.469501 3.83332 0.715477C3.55832 0.961454 3.38362 1.30016 3.34263 1.66683H2.16663C1.7688 1.66683 1.38727 1.82486 1.10597 2.10617C0.824661 2.38747 0.666626 2.769 0.666626 3.16683V12.1668C0.666626 12.5647 0.824661 12.9462 1.10597 13.2275C1.38727 13.5088 1.7688 13.6668 2.16663 13.6668H9.83329C10.0303 13.6668 10.2253 13.628 10.4073 13.5526C10.5893 13.4773 10.7547 13.3668 10.894 13.2275C11.0332 13.0882 11.1437 12.9228 11.2191 12.7409C11.2945 12.5589 11.3333 12.3638 11.3333 12.1668V3.16683C11.3333 2.96985 11.2945 2.77479 11.2191 2.5928C11.1437 2.41082 11.0332 2.24546 10.894 2.10617C10.7547 1.96688 10.5893 1.85639 10.4073 1.78101C10.2253 1.70563 10.0303 1.66683 9.83329 1.66683H8.65729L8.66263 1.72283ZM8.66263 1.73083L8.66663 1.8335C8.66663 1.79883 8.66529 1.76483 8.66329 1.73083H8.66263ZM4.83329 3.3335H7.16663C7.68663 3.3335 8.14463 3.06883 8.41396 2.66683H9.83329C9.9659 2.66683 10.0931 2.71951 10.1868 2.81328C10.2806 2.90704 10.3333 3.03422 10.3333 3.16683V12.1668C10.3333 12.2994 10.2806 12.4266 10.1868 12.5204C10.0931 12.6142 9.9659 12.6668 9.83329 12.6668H2.16663C2.03402 12.6668 1.90684 12.6142 1.81307 12.5204C1.7193 12.4266 1.66663 12.2994 1.66663 12.1668V3.16683C1.66663 3.03422 1.7193 2.90704 1.81307 2.81328C1.90684 2.71951 2.03402 2.66683 2.16663 2.66683H3.58596C3.85529 3.06883 4.31329 3.3335 4.83329 3.3335ZM4.83329 1.3335H7.16663C7.29923 1.3335 7.42641 1.38617 7.52018 1.47994C7.61395 1.57371 7.66663 1.70089 7.66663 1.8335C7.66663 1.9661 7.61395 2.09328 7.52018 2.18705C7.42641 2.28082 7.29923 2.3335 7.16663 2.3335H4.83329C4.70068 2.3335 4.57351 2.28082 4.47974 2.18705C4.38597 2.09328 4.33329 1.9661 4.33329 1.8335C4.33329 1.70089 4.38597 1.57371 4.47974 1.47994C4.57351 1.38617 4.70068 1.3335 4.83329 1.3335Z"/>
</mask>
<path d="M6.33329 5.8335C6.33329 5.70089 6.38597 5.57371 6.47974 5.47994C6.57351 5.38618 6.70068 5.3335 6.83329 5.3335H9.16663C9.29923 5.3335 9.42641 5.38618 9.52018 5.47994C9.61395 5.57371 9.66663 5.70089 9.66663 5.8335C9.66663 5.9661 9.61395 6.09328 9.52018 6.18705C9.42641 6.28082 9.29923 6.3335 9.16663 6.3335H6.83329C6.70068 6.3335 6.57351 6.28082 6.47974 6.18705C6.38597 6.09328 6.33329 5.9661 6.33329 5.8335ZM6.83329 9.00016C6.70068 9.00016 6.57351 9.05284 6.47974 9.14661C6.38597 9.24038 6.33329 9.36755 6.33329 9.50016C6.33329 9.63277 6.38597 9.75995 6.47974 9.85372C6.57351 9.94748 6.70068 10.0002 6.83329 10.0002H9.16663C9.29923 10.0002 9.42641 9.94748 9.52018 9.85372C9.61395 9.75995 9.66663 9.63277 9.66663 9.50016C9.66663 9.36755 9.61395 9.24038 9.52018 9.14661C9.42641 9.05284 9.29923 9.00016 9.16663 9.00016H6.83329ZM5.18663 5.52016C5.23575 5.47439 5.27515 5.41919 5.30248 5.35785C5.32981 5.29652 5.3445 5.23031 5.34569 5.16318C5.34687 5.09604 5.33452 5.02936 5.30937 4.9671C5.28423 4.90484 5.2468 4.84828 5.19932 4.8008C5.15184 4.75332 5.09528 4.7159 5.03302 4.69075C4.97077 4.6656 4.90408 4.65325 4.83694 4.65444C4.76981 4.65562 4.7036 4.67031 4.64227 4.69764C4.58093 4.72497 4.52573 4.76437 4.47996 4.8135L3.49996 5.7935L3.18663 5.48016C3.09184 5.39184 2.96648 5.34376 2.83694 5.34605C2.70741 5.34833 2.58382 5.40081 2.49221 5.49242C2.4006 5.58402 2.34813 5.70761 2.34584 5.83715C2.34356 5.96668 2.39164 6.09205 2.47996 6.18683L3.14663 6.8535C3.24038 6.94713 3.36746 6.99972 3.49996 6.99972C3.63246 6.99972 3.75954 6.94713 3.85329 6.8535L5.18663 5.52016ZM5.18663 8.48016C5.28026 8.57391 5.33285 8.701 5.33285 8.8335C5.33285 8.966 5.28026 9.09308 5.18663 9.18683L3.85329 10.5202C3.75954 10.6138 3.63246 10.6664 3.49996 10.6664C3.36746 10.6664 3.24038 10.6138 3.14663 10.5202L2.47996 9.8535C2.43083 9.80772 2.39143 9.75252 2.36411 9.69119C2.33678 9.62986 2.32208 9.56365 2.3209 9.49651C2.31971 9.42938 2.33206 9.36269 2.35721 9.30043C2.38236 9.23817 2.41979 9.18162 2.46727 9.13414C2.51475 9.08666 2.5713 9.04923 2.63356 9.02408C2.69582 8.99893 2.76251 8.98658 2.82964 8.98777C2.89678 8.98895 2.96299 9.00365 3.02432 9.03098C3.08565 9.0583 3.14085 9.0977 3.18663 9.14683L3.49996 9.46016L4.47996 8.48016C4.57371 8.38653 4.70079 8.33394 4.83329 8.33394C4.96579 8.33394 5.09288 8.38653 5.18663 8.48016ZM8.66263 1.72283C8.63469 1.34518 8.46494 0.99207 8.18747 0.734376C7.90999 0.476681 7.54531 0.333474 7.16663 0.333496H4.83329C4.46433 0.333507 4.10832 0.469501 3.83332 0.715477C3.55832 0.961454 3.38362 1.30016 3.34263 1.66683H2.16663C1.7688 1.66683 1.38727 1.82486 1.10597 2.10617C0.824661 2.38747 0.666626 2.769 0.666626 3.16683V12.1668C0.666626 12.5647 0.824661 12.9462 1.10597 13.2275C1.38727 13.5088 1.7688 13.6668 2.16663 13.6668H9.83329C10.0303 13.6668 10.2253 13.628 10.4073 13.5526C10.5893 13.4773 10.7547 13.3668 10.894 13.2275C11.0332 13.0882 11.1437 12.9228 11.2191 12.7409C11.2945 12.5589 11.3333 12.3638 11.3333 12.1668V3.16683C11.3333 2.96985 11.2945 2.77479 11.2191 2.5928C11.1437 2.41082 11.0332 2.24546 10.894 2.10617C10.7547 1.96688 10.5893 1.85639 10.4073 1.78101C10.2253 1.70563 10.0303 1.66683 9.83329 1.66683H8.65729L8.66263 1.72283ZM8.66263 1.73083L8.66663 1.8335C8.66663 1.79883 8.66529 1.76483 8.66329 1.73083H8.66263ZM4.83329 3.3335H7.16663C7.68663 3.3335 8.14463 3.06883 8.41396 2.66683H9.83329C9.9659 2.66683 10.0931 2.71951 10.1868 2.81328C10.2806 2.90704 10.3333 3.03422 10.3333 3.16683V12.1668C10.3333 12.2994 10.2806 12.4266 10.1868 12.5204C10.0931 12.6142 9.9659 12.6668 9.83329 12.6668H2.16663C2.03402 12.6668 1.90684 12.6142 1.81307 12.5204C1.7193 12.4266 1.66663 12.2994 1.66663 12.1668V3.16683C1.66663 3.03422 1.7193 2.90704 1.81307 2.81328C1.90684 2.71951 2.03402 2.66683 2.16663 2.66683H3.58596C3.85529 3.06883 4.31329 3.3335 4.83329 3.3335ZM4.83329 1.3335H7.16663C7.29923 1.3335 7.42641 1.38617 7.52018 1.47994C7.61395 1.57371 7.66663 1.70089 7.66663 1.8335C7.66663 1.9661 7.61395 2.09328 7.52018 2.18705C7.42641 2.28082 7.29923 2.3335 7.16663 2.3335H4.83329C4.70068 2.3335 4.57351 2.28082 4.47974 2.18705C4.38597 2.09328 4.33329 1.9661 4.33329 1.8335C4.33329 1.70089 4.38597 1.57371 4.47974 1.47994C4.57351 1.38617 4.70068 1.3335 4.83329 1.3335Z" stroke="none" stroke-width="2" mask="url(#path-1-inside-1)"/>
</svg>
