<svg width="13" height="13" viewBox="0 0 13 13" fill="none" xmlns="http://www.w3.org/2000/svg">
<path d="M11.1752 8.54214L11.1762 8.53906C11.1896 8.49716 11.219 8.46226 11.2581 8.44197C11.2971 8.42168 11.3426 8.41764 11.3846 8.43072L11.3942 8.43372L11.4039 8.43634C11.4254 8.4421 11.4456 8.45211 11.4631 8.46577C11.4807 8.47943 11.4953 8.49647 11.5062 8.51589C11.5171 8.53531 11.524 8.55671 11.5264 8.57882C11.5288 8.59958 11.5271 8.62058 11.5217 8.64071C11.1542 9.77506 10.4329 10.7619 9.46353 11.4565C8.49203 12.1526 7.3227 12.5185 6.12768 12.5001L6.12768 12.4999L6.11557 12.5001C4.64128 12.5131 3.22203 11.9408 2.16924 10.9086C1.11775 9.87774 0.517601 8.47231 0.500033 7.00004C0.517601 5.52777 1.11775 4.12233 2.16924 3.09146C3.22203 2.05931 4.64128 1.48697 6.11557 1.50004L6.1199 1.50004C7.47643 1.5003 8.78741 1.98948 9.81254 2.87789L10.4718 3.44926L10.6315 2.59157L10.8112 1.6267C10.8112 1.6265 10.8113 1.6263 10.8113 1.6261C10.8203 1.57982 10.8472 1.53894 10.8862 1.5124L10.6048 1.09907L10.8862 1.5124C10.9056 1.4992 10.9274 1.48996 10.9503 1.48518C10.9733 1.48041 10.997 1.48021 11.02 1.48458C11.043 1.48896 11.065 1.49783 11.0846 1.5107C11.1042 1.52356 11.1211 1.54016 11.1343 1.55954L11.5466 1.27888L11.1343 1.55955C11.1475 1.57894 11.1568 1.60073 11.1615 1.62369C11.1663 1.64666 11.1665 1.67033 11.1621 1.69338L11.1619 1.69456L10.7218 4.04186L9.53904 3.06172C8.57851 2.26572 7.36965 1.83116 6.12223 1.83337C4.738 1.81854 3.40422 2.35278 2.41294 3.3192C1.42085 4.28643 0.852808 5.6076 0.833382 6.99303L0.833186 6.99302L0.833382 7.00705C0.852808 8.39247 1.42085 9.71365 2.41294 10.6809C3.40366 11.6468 4.7365 12.1809 6.1199 12.1667C7.23742 12.1786 8.32974 11.8342 9.23843 11.1835C10.1487 10.5316 10.8272 9.60627 11.1752 8.54214ZM9.13817 3.93996L10.6925 4.19783L10.6688 4.32446C10.6536 4.34907 10.6401 4.37546 10.6286 4.40362C10.6195 4.41374 10.6102 4.42484 10.6009 4.43677C10.5963 4.44269 10.5913 4.44945 10.586 4.45703L10.5333 4.47662L10.515 4.49263C10.5099 4.49311 10.5047 4.49336 10.4996 4.49337C10.4995 4.49337 10.4995 4.49337 10.4994 4.49337L10.4277 4.49337L7.64145 4.03338L7.64145 4.03337L7.63837 4.03288C7.61667 4.02944 7.59587 4.02174 7.57716 4.01023C7.55845 3.99872 7.5422 3.98363 7.52934 3.96582C7.51649 3.94801 7.50728 3.92783 7.50225 3.90644C7.49722 3.88506 7.49647 3.86289 7.50004 3.84122L7.50049 3.8384C7.50393 3.81671 7.51163 3.79591 7.52314 3.7772C7.53465 3.75849 7.54974 3.74224 7.56755 3.72938C7.58537 3.71653 7.60555 3.70732 7.62693 3.70229C7.64825 3.69727 7.67035 3.69651 7.69196 3.70004C7.69203 3.70005 7.69209 3.70006 7.69215 3.70007L9.13817 3.93996ZM7.09727 3.51521C7.05123 3.59005 7.02044 3.67326 7.00667 3.76004L7.09727 3.51521Z"/>
</svg>
