<svg width="24" height="24" viewBox="0 0 22 21" fill="none" xmlns="http://www.w3.org/2000/svg">
<path d="M11 20.002C16.524 20.002 21.002 15.524 21.002 10.001C21.002 4.47702 16.524 -0.000976562 11 -0.000976562C5.476 -0.000976562 0.998001 4.47702 0.998001 10.001C0.998001 15.524 5.476 20.002 11 20.002ZM11 18.502C8.7454 18.502 6.58313 17.6064 4.98889 16.0121C3.39464 14.4179 2.499 12.2556 2.499 10.001C2.499 7.74642 3.39464 5.58416 4.98889 3.98991C6.58313 2.39566 8.7454 1.50002 11 1.50002C13.2547 1.50002 15.4171 2.39571 17.0115 3.99006C18.6058 5.5844 19.5015 7.74679 19.5015 10.0015C19.5015 12.2563 18.6058 14.4187 17.0115 16.013C15.4171 17.6073 13.2547 18.503 11 18.503V18.502Z" fill="#424242"/>
</svg>
