<svg width="204" height="147" viewBox="0 0 204 147" fill="none" xmlns="http://www.w3.org/2000/svg">
<path d="M182.558 86.8734H147.9C148.784 84.745 149.239 82.465 149.237 80.1628C149.238 77.7496 148.738 75.3621 147.77 73.1487H163.036C174.88 73.1487 184.479 64.5309 184.479 53.9001C184.479 43.2693 174.88 34.6523 163.036 34.6523H142.052C144.317 31.5967 145.543 27.9047 145.553 24.111C145.553 13.4856 135.955 4.88574 124.099 4.88574H21.4428C9.59967 4.88704 0 13.4869 0 24.1177C0 34.7432 9.59967 43.3604 21.4428 43.3604H42.4377C40.1727 46.4157 38.9463 50.1074 38.9361 53.9007C38.9355 56.3139 39.4351 58.7015 40.4038 60.9149H25.1434C13.2995 60.9149 3.70047 69.5327 3.70047 80.1635C3.70047 90.7943 13.2995 99.4114 25.1433 99.4114H59.7838C58.8984 101.543 58.4438 103.827 58.4459 106.133C58.4459 116.764 68.0456 125.381 79.8887 125.381H182.557C194.4 125.381 204 116.764 204 106.133C204.001 95.4905 194.401 86.8734 182.558 86.8734Z" fill="#EAEAEA"/>
<path d="M91.8564 91.2046C110.842 91.2046 126.232 75.8289 126.232 56.8621C126.232 37.8952 110.842 22.5195 91.8564 22.5195C72.8712 22.5195 57.4807 37.8952 57.4807 56.8621C57.4807 75.8289 72.8712 91.2046 91.8564 91.2046Z" fill="white"/>
<path fill-rule="evenodd" clip-rule="evenodd" d="M146.881 5.15878C146.881 8.00789 149.198 10.3176 152.057 10.3176H152.08C153.45 10.3146 154.762 9.76936 155.729 8.8019C156.695 7.83444 157.236 6.52397 157.233 5.15878C157.233 2.30966 154.916 0 152.057 0C149.198 0 146.881 2.30966 146.881 5.15878ZM45.3362 22.2022C42.4773 22.2022 40.1597 19.8926 40.1597 17.0435C40.1597 14.1944 42.4772 11.8847 45.3361 11.8847C48.1949 11.8846 50.5125 14.1942 50.5126 17.0433C50.5156 18.4085 49.9743 19.719 49.0078 20.6864C48.0413 21.6539 46.7287 22.1991 45.3589 22.2021H45.3362V22.2022ZM45.3362 14.2646C43.7959 14.2646 42.5472 15.509 42.5472 17.044C42.5472 18.5791 43.7959 19.8235 45.3362 19.8235C46.8765 19.8235 48.1251 18.5791 48.1251 17.044C48.1039 15.5179 46.8676 14.2858 45.3362 14.2646ZM152.054 2.37935C150.524 2.40206 149.289 3.63352 149.268 5.15874C149.336 6.64263 150.563 7.81065 152.054 7.81065C153.544 7.81065 154.772 6.64263 154.84 5.15874C154.818 3.6337 153.584 2.40244 152.054 2.37935ZM152.054 2.37935L152.051 2.37931H152.057L152.054 2.37935ZM93.5202 6.58516H95.9865V6.56709H96.032C96.3426 6.57303 96.6381 6.70177 96.8534 6.92496C97.0687 7.14815 97.1861 7.44748 97.1799 7.75702C97.1658 8.40807 96.6398 8.93262 95.9865 8.94709H93.5202V11.3995C93.5266 11.8289 93.3004 12.2283 92.9283 12.4448C92.5563 12.6613 92.0961 12.6613 91.724 12.4448C91.352 12.2283 91.1258 11.8289 91.1322 11.3995V8.94163H88.6658C88.0185 8.9251 87.5023 8.39734 87.5023 7.75195C87.5023 7.10656 88.0185 6.5788 88.6658 6.56227H91.1322V4.10462C91.1258 3.67531 91.352 3.27586 91.724 3.05935C92.0961 2.84283 92.5563 2.84283 92.9283 3.05935C93.3004 3.27586 93.5266 3.67531 93.5202 4.10462V6.58516ZM27.7359 76.0126H25.2696V73.5546C25.2428 72.9169 24.7163 72.4136 24.0759 72.4136C23.4354 72.4136 22.9089 72.9169 22.8821 73.5546V76.0125H20.3363C19.9025 76.0014 19.4969 76.2257 19.2767 76.5984C19.0565 76.971 19.0565 77.4333 19.2767 77.806C19.4969 78.1786 19.9025 78.4029 20.3363 78.3918H22.8026V80.8497C22.8026 81.5068 23.3371 82.0394 23.9964 82.0394C24.6557 82.0394 25.1901 81.5068 25.1901 80.8497V78.392H27.6563C28.3019 78.3747 28.8237 77.8622 28.8505 77.2192C28.8674 76.9095 28.7557 76.6065 28.5416 76.3813C28.3275 76.1562 28.0298 76.0288 27.7186 76.0291L27.7359 76.0126ZM173.165 42.2629L175.631 42.2628L175.7 42.2635C176.011 42.2754 176.304 42.4097 176.514 42.6369C176.725 42.8641 176.837 43.1655 176.825 43.4747C176.808 44.1244 176.283 44.6471 175.631 44.6648H173.165V47.1007C173.165 47.7578 172.631 48.2904 171.971 48.2904C171.312 48.2904 170.778 47.7578 170.778 47.1007V44.6428H168.311C167.652 44.6428 167.117 44.1101 167.117 43.4529C167.117 42.7957 167.652 42.2629 168.311 42.2629H170.778V39.8217C170.794 39.1765 171.324 38.6621 171.971 38.6621C172.619 38.6621 173.149 39.1765 173.165 39.8217V42.2629Z" fill="#AFAFAF"/>
<path d="M91.2633 82.6591C105.632 82.6591 117.279 71.0017 117.279 56.6216C117.279 42.2414 105.632 30.584 91.2633 30.584C76.8949 30.584 65.2471 42.2414 65.2471 56.6216C65.2471 71.0017 76.8949 82.6591 91.2633 82.6591Z" stroke="#AFAFAF" stroke-width="2" stroke-miterlimit="10"/>
<path d="M136.275 133.907C136.275 122.069 131.576 110.716 123.212 102.345C114.849 93.9742 103.505 89.2715 91.6761 89.2715C79.8477 89.2715 68.5037 93.9742 60.1397 102.345C51.7757 110.716 47.0769 122.069 47.0769 133.907L91.6761 133.907H136.275Z" stroke="#AFAFAF" stroke-width="2"/>
<path d="M141.231 145.48C154.915 145.48 166.008 134.377 166.008 120.682C166.008 106.987 154.915 95.8843 141.231 95.8843C127.547 95.8843 116.453 106.987 116.453 120.682C116.453 134.377 127.547 145.48 141.231 145.48Z" fill="white" stroke="#AFAFAF" stroke-width="2" stroke-miterlimit="10"/>
<line x1="1" y1="-1" x2="30.5493" y2="-1" transform="matrix(0.706816 0.707397 -0.706816 0.707397 129.668 109.937)" stroke="#AFAFAF" stroke-width="2" stroke-linecap="round"/>
<line x1="1" y1="-1" x2="30.5493" y2="-1" transform="matrix(0.706816 -0.707397 0.706816 0.707397 130.494 132.254)" stroke="#AFAFAF" stroke-width="2" stroke-linecap="round"/>
</svg>
