<svg width="14" height="14" viewBox="0 0 14 14" fill="none" xmlns="http://www.w3.org/2000/svg">
<path d="M10.6666 1.33301V10.6663H1.33325V1.33301H10.6666ZM10.6666 0.333008H1.33325C1.06804 0.333008 0.813682 0.438365 0.626145 0.625901C0.438609 0.813437 0.333252 1.06779 0.333252 1.33301V10.6663C0.333252 10.9316 0.438609 11.1859 0.626145 11.3734C0.813682 11.561 1.06804 11.6663 1.33325 11.6663H10.6666C10.9318 11.6663 11.1862 11.561 11.3737 11.3734C11.5612 11.1859 11.6666 10.9316 11.6666 10.6663V1.33301C11.6666 1.06779 11.5612 0.813437 11.3737 0.625901C11.1862 0.438365 10.9318 0.333008 10.6666 0.333008Z" fill="#3376D0"/>
<path d="M12.6662 2.53906V11.8191C12.6662 12.0436 12.577 12.259 12.4182 12.4177C12.2595 12.5765 12.0441 12.6657 11.8196 12.6657H2.53955C2.69488 12.9668 2.93004 13.2194 3.2193 13.3957C3.50856 13.5721 3.84076 13.6655 4.17955 13.6657H11.8196C12.3093 13.6657 12.779 13.4712 13.1253 13.1249C13.4717 12.7785 13.6662 12.3088 13.6662 11.8191V4.17906C13.666 3.84027 13.5726 3.50807 13.3962 3.21881C13.2199 2.92955 12.9673 2.69439 12.6662 2.53906Z" fill="#3376D0"/>
<path d="M4.55992 8.40629L2.91992 5.94629L3.74659 5.38629L4.77325 6.92629L8.34659 3.94629L8.98659 4.71962L4.55992 8.40629Z" fill="#3376D0"/>
</svg>
