<svg width="14" height="15" viewBox="0 0 14 15" fill="none" xmlns="http://www.w3.org/2000/svg">
<mask id="path-1-inside-1" fill="white">
<path d="M7.60086 1.84935L7.66086 3.32935V3.93602L8.21419 4.19602C8.41168 4.28669 8.60123 4.39373 8.78086 4.51602L9.28086 4.86935L9.82086 4.58935L11.1542 3.92269L12.0409 5.45602L10.7875 6.24935L10.2742 6.57602L10.3275 7.18269C10.3554 7.40403 10.3554 7.62801 10.3275 7.84935L10.2742 8.45602L10.7875 8.78269L12.0409 9.56935L11.1475 11.116L9.81419 10.4494L9.31419 10.1827L8.81419 10.536C8.63456 10.6583 8.44501 10.7654 8.24752 10.856L7.69419 11.116V11.7227L7.63419 13.2027H5.83419L5.77419 11.7227V11.116L5.16752 10.8494C4.97003 10.7587 4.78048 10.6516 4.60086 10.5294L4.10086 10.1827L3.56086 10.4627L2.22752 11.1294L1.37419 9.57602L2.62752 8.78269L3.14086 8.45602L3.08752 7.84935C3.05964 7.62801 3.05964 7.40403 3.08752 7.18269L3.14086 6.57602L2.62752 6.24935L1.37419 5.46269L2.24752 3.90935L3.58086 4.57602L4.10086 4.84935L4.60086 4.49602C4.78072 4.37602 4.97026 4.27121 5.16752 4.18269L5.72086 3.92269V3.31602L5.78086 1.83602H7.57419L7.60086 1.84935ZM7.57419 0.83602H5.81419C5.57591 0.816837 5.33936 0.889813 5.1533 1.0399C4.96724 1.18999 4.84586 1.40575 4.81419 1.64269L4.74752 3.26935C4.49919 3.39185 4.26264 3.5369 4.04086 3.70269L2.57419 2.94935C2.47389 2.8871 2.35886 2.85259 2.24086 2.84935C2.06016 2.85923 1.88517 2.91608 1.73317 3.01429C1.58118 3.1125 1.45744 3.24868 1.37419 3.40935L0.487523 4.95602C0.356459 5.15561 0.306261 5.39759 0.34712 5.63284C0.38798 5.8681 0.516834 6.07898 0.707522 6.22269L2.04086 7.09602C2.04086 7.23824 2.04086 7.37824 2.04086 7.51602C2.04086 7.6538 2.04086 7.7938 2.04086 7.93602L0.707522 8.80935C0.521079 8.95689 0.397472 9.1696 0.361597 9.40464C0.325723 9.63968 0.380248 9.87958 0.514189 10.076L1.37419 11.6227C1.45744 11.7834 1.58118 11.9195 1.73317 12.0177C1.88517 12.116 2.06016 12.1728 2.24086 12.1827C2.35764 12.1835 2.47259 12.1536 2.57419 12.096L4.04086 11.3294C4.26741 11.4912 4.50843 11.6318 4.76086 11.7494L4.82752 13.376C4.85911 13.6105 4.97857 13.8242 5.16174 13.974C5.34491 14.1237 5.57811 14.1983 5.81419 14.1827H7.60086C7.83913 14.2019 8.07569 14.1289 8.26175 13.9788C8.44781 13.8287 8.56919 13.613 8.60086 13.376L8.66752 11.7494C8.91535 11.6311 9.15188 11.4905 9.37419 11.3294L10.8275 12.0827C10.9291 12.1403 11.0441 12.1702 11.1609 12.1694C11.3425 12.1631 11.5194 12.1093 11.6738 12.0134C11.8282 11.9175 11.9547 11.7828 12.0409 11.6227L12.9342 10.076C13.0681 9.87958 13.1227 9.63968 13.0868 9.40464C13.0509 9.1696 12.9273 8.95689 12.7409 8.80935L11.3742 7.93602C11.3742 7.7938 11.3742 7.6538 11.3742 7.51602C11.3742 7.37824 11.3742 7.23824 11.3742 7.09602L12.7075 6.22269C12.894 6.07515 13.0176 5.86243 13.0534 5.6274C13.0893 5.39236 13.0348 5.15246 12.9009 4.95602L12.0409 3.40935C11.9576 3.24868 11.8339 3.1125 11.6819 3.01429C11.5299 2.91608 11.3549 2.85923 11.1742 2.84935C11.0574 2.84855 10.9425 2.87843 10.8409 2.93602L9.37419 3.70269C9.14764 3.54081 8.90661 3.40021 8.65419 3.28269L8.58752 1.65602C8.55593 1.42155 8.43647 1.20782 8.2533 1.05807C8.07014 0.908316 7.83693 0.833715 7.60086 0.849353L7.57419 0.83602Z"/>
</mask>
<path d="M7.60086 1.84935L7.66086 3.32935V3.93602L8.21419 4.19602C8.41168 4.28669 8.60123 4.39373 8.78086 4.51602L9.28086 4.86935L9.82086 4.58935L11.1542 3.92269L12.0409 5.45602L10.7875 6.24935L10.2742 6.57602L10.3275 7.18269C10.3554 7.40403 10.3554 7.62801 10.3275 7.84935L10.2742 8.45602L10.7875 8.78269L12.0409 9.56935L11.1475 11.116L9.81419 10.4494L9.31419 10.1827L8.81419 10.536C8.63456 10.6583 8.44501 10.7654 8.24752 10.856L7.69419 11.116V11.7227L7.63419 13.2027H5.83419L5.77419 11.7227V11.116L5.16752 10.8494C4.97003 10.7587 4.78048 10.6516 4.60086 10.5294L4.10086 10.1827L3.56086 10.4627L2.22752 11.1294L1.37419 9.57602L2.62752 8.78269L3.14086 8.45602L3.08752 7.84935C3.05964 7.62801 3.05964 7.40403 3.08752 7.18269L3.14086 6.57602L2.62752 6.24935L1.37419 5.46269L2.24752 3.90935L3.58086 4.57602L4.10086 4.84935L4.60086 4.49602C4.78072 4.37602 4.97026 4.27121 5.16752 4.18269L5.72086 3.92269V3.31602L5.78086 1.83602H7.57419L7.60086 1.84935ZM7.57419 0.83602H5.81419C5.57591 0.816837 5.33936 0.889813 5.1533 1.0399C4.96724 1.18999 4.84586 1.40575 4.81419 1.64269L4.74752 3.26935C4.49919 3.39185 4.26264 3.5369 4.04086 3.70269L2.57419 2.94935C2.47389 2.8871 2.35886 2.85259 2.24086 2.84935C2.06016 2.85923 1.88517 2.91608 1.73317 3.01429C1.58118 3.1125 1.45744 3.24868 1.37419 3.40935L0.487523 4.95602C0.356459 5.15561 0.306261 5.39759 0.34712 5.63284C0.38798 5.8681 0.516834 6.07898 0.707522 6.22269L2.04086 7.09602C2.04086 7.23824 2.04086 7.37824 2.04086 7.51602C2.04086 7.6538 2.04086 7.7938 2.04086 7.93602L0.707522 8.80935C0.521079 8.95689 0.397472 9.1696 0.361597 9.40464C0.325723 9.63968 0.380248 9.87958 0.514189 10.076L1.37419 11.6227C1.45744 11.7834 1.58118 11.9195 1.73317 12.0177C1.88517 12.116 2.06016 12.1728 2.24086 12.1827C2.35764 12.1835 2.47259 12.1536 2.57419 12.096L4.04086 11.3294C4.26741 11.4912 4.50843 11.6318 4.76086 11.7494L4.82752 13.376C4.85911 13.6105 4.97857 13.8242 5.16174 13.974C5.34491 14.1237 5.57811 14.1983 5.81419 14.1827H7.60086C7.83913 14.2019 8.07569 14.1289 8.26175 13.9788C8.44781 13.8287 8.56919 13.613 8.60086 13.376L8.66752 11.7494C8.91535 11.6311 9.15188 11.4905 9.37419 11.3294L10.8275 12.0827C10.9291 12.1403 11.0441 12.1702 11.1609 12.1694C11.3425 12.1631 11.5194 12.1093 11.6738 12.0134C11.8282 11.9175 11.9547 11.7828 12.0409 11.6227L12.9342 10.076C13.0681 9.87958 13.1227 9.63968 13.0868 9.40464C13.0509 9.1696 12.9273 8.95689 12.7409 8.80935L11.3742 7.93602C11.3742 7.7938 11.3742 7.6538 11.3742 7.51602C11.3742 7.37824 11.3742 7.23824 11.3742 7.09602L12.7075 6.22269C12.894 6.07515 13.0176 5.86243 13.0534 5.6274C13.0893 5.39236 13.0348 5.15246 12.9009 4.95602L12.0409 3.40935C11.9576 3.24868 11.8339 3.1125 11.6819 3.01429C11.5299 2.91608 11.3549 2.85923 11.1742 2.84935C11.0574 2.84855 10.9425 2.87843 10.8409 2.93602L9.37419 3.70269C9.14764 3.54081 8.90661 3.40021 8.65419 3.28269L8.58752 1.65602C8.55593 1.42155 8.43647 1.20782 8.2533 1.05807C8.07014 0.908316 7.83693 0.833715 7.60086 0.849353L7.57419 0.83602Z" stroke="#3376D0" stroke-width="2" mask="url(#path-1-inside-1)"/>
<path d="M5.87417 6.26842C5.79306 6.32262 5.71685 6.38497 5.64686 6.45496C5.6389 6.46293 5.63103 6.47097 5.62327 6.47909C5.69858 6.40031 5.78263 6.32959 5.87417 6.26842ZM5.87417 6.26842C6.11904 6.10481 6.40868 6.01563 6.70752 6.01563C6.41085 6.01562 6.12084 6.1036 5.87417 6.26842ZM7.54088 6.26842C7.50136 6.24202 7.46074 6.21759 7.41916 6.19518C7.52528 6.25237 7.62481 6.32251 7.7153 6.4046C7.66081 6.35517 7.60254 6.30963 7.54088 6.26842ZM8.20752 7.51563C8.20752 7.31959 8.16909 7.12447 8.09334 6.9416C8.16801 7.12187 8.20752 7.31671 8.20752 7.51563Z" fill="#424242" stroke="#3376D0"/>
</svg>
