<svg width="15" height="13" viewBox="0 0 15 13" fill="none" xmlns="http://www.w3.org/2000/svg">
<path d="M12 8.8335H12.3334V10.3335C12.3334 10.7313 12.1753 11.1129 11.894 11.3942C11.6127 11.6755 11.2312 11.8335 10.8334 11.8335H4.16671C3.76888 11.8335 3.38735 11.6755 3.10605 11.3942C2.82474 11.1129 2.66671 10.7313 2.66671 10.3335V8.8335H3.00004V10.3335C3.00004 10.6429 3.12296 10.9397 3.34175 11.1585C3.56054 11.3772 3.85729 11.5002 4.16671 11.5002H10.8334C11.1428 11.5002 11.4395 11.3772 11.6583 11.1585C11.8771 10.9397 12 10.6429 12 10.3335V8.8335ZM13.6179 6.21564C13.6491 6.2469 13.6667 6.28929 13.6667 6.3335C13.6667 6.3777 13.6491 6.42009 13.6179 6.45135C13.5866 6.4826 13.5442 6.50016 13.5 6.50016H1.50004C1.45584 6.50016 1.41345 6.4826 1.38219 6.45135C1.35093 6.42009 1.33337 6.3777 1.33337 6.3335C1.33337 6.28929 1.35093 6.2469 1.38219 6.21565C1.41345 6.18439 1.45584 6.16683 1.50004 6.16683H13.5C13.5442 6.16683 13.5866 6.18439 13.6179 6.21564ZM12.3334 2.3335V3.8335H12V2.3335C12 2.02408 11.8771 1.72733 11.6583 1.50854C11.4395 1.28975 11.1428 1.16683 10.8334 1.16683H4.16671C3.85729 1.16683 3.56054 1.28975 3.34175 1.50854C3.12296 1.72733 3.00004 2.02408 3.00004 2.3335V3.8335H2.66671V2.3335C2.66671 1.93567 2.82474 1.55414 3.10605 1.27284C3.38735 0.991531 3.76888 0.833496 4.16671 0.833496H10.8334C11.2312 0.833496 11.6127 0.991531 11.894 1.27284C12.1753 1.55414 12.3334 1.93567 12.3334 2.3335Z"/>
</svg>
