<svg width="279" height="215" viewBox="0 0 279 215" fill="none" xmlns="http://www.w3.org/2000/svg">
<path d="M249.675 118.464H202.275C203.484 115.562 204.106 112.453 204.104 109.313C204.105 106.022 203.421 102.767 202.097 99.7484H222.976C239.174 99.7484 252.302 87.9969 252.302 73.5003C252.302 59.0038 239.174 47.2533 222.976 47.2533H194.277C197.375 43.0866 199.052 38.052 199.066 32.8788C199.066 18.3897 185.938 6.6626 169.724 6.6626H29.3262C13.129 6.66437 0 18.3915 0 32.888C0 47.3773 13.129 59.128 29.3262 59.128H58.0398C54.942 63.2943 53.2647 68.3284 53.2508 73.5012C53.25 76.792 53.9333 80.0477 55.2582 83.066H34.3873C18.189 83.066 5.06093 94.8175 5.06093 109.314C5.06093 123.811 18.189 135.561 34.3871 135.561H81.7632C80.5523 138.468 79.9305 141.583 79.9334 144.727C79.9334 159.224 93.0623 170.975 109.26 170.975H249.674C265.871 170.975 279 159.224 279 144.727C279.001 130.215 265.872 118.464 249.675 118.464Z" fill="#EAEAEA"/>
<path fill-rule="evenodd" clip-rule="evenodd" d="M200.881 7.0347C200.881 10.9199 204.05 14.0694 207.96 14.0694H207.991C209.865 14.0653 211.66 13.3219 212.982 12.0026C214.304 10.6833 215.044 8.89633 215.04 7.0347C215.04 3.14954 211.87 0 207.96 0C204.05 0 200.881 3.14954 200.881 7.0347ZM62.004 30.2758C58.0941 30.2758 54.9244 27.1263 54.9244 23.2411C54.9244 19.356 58.0939 16.2064 62.0038 16.2064C65.9137 16.2063 69.0834 19.3558 69.0835 23.2409C69.0876 25.1025 68.3474 26.8895 67.0255 28.2088C65.7036 29.528 63.9085 30.2715 62.035 30.2756H62.004V30.2758ZM62.004 19.4516C59.8974 19.4516 58.1897 21.1485 58.1897 23.2418C58.1897 25.335 59.8974 27.0319 62.004 27.0319C64.1105 27.0319 65.8182 25.335 65.8182 23.2418C65.7892 21.1606 64.0984 19.4805 62.004 19.4516ZM207.956 3.24441C205.864 3.27537 204.175 4.95464 204.146 7.03448C204.239 9.05796 205.918 10.6507 207.956 10.6507C209.995 10.6507 211.673 9.05796 211.766 7.03448C211.737 4.95488 210.049 3.27589 207.956 3.24441ZM207.956 3.24441L207.952 3.24435H207.96L207.956 3.24441ZM127.903 8.97982H131.276V8.95517H131.338C131.763 8.96327 132.167 9.13883 132.461 9.44318C132.756 9.74753 132.916 10.1557 132.908 10.5778C132.889 11.4656 132.169 12.1809 131.276 12.2006H127.903V15.5449C127.911 16.1303 127.602 16.675 127.093 16.9703C126.584 17.2655 125.955 17.2655 125.446 16.9703C124.937 16.675 124.628 16.1303 124.637 15.5449V12.1932H121.264C120.378 12.1706 119.672 11.451 119.672 10.5709C119.672 9.69082 120.378 8.97114 121.264 8.9486H124.637V5.59726C124.628 5.01183 124.937 4.46713 125.446 4.17189C125.955 3.87664 126.584 3.87664 127.093 4.17189C127.602 4.46713 127.911 5.01183 127.903 5.59726V8.97982ZM37.933 103.654H34.56V100.302C34.5233 99.4321 33.8032 98.7459 32.9273 98.7459C32.0514 98.7459 31.3313 99.4321 31.2947 100.302V103.653H27.8129C27.2197 103.638 26.6649 103.944 26.3638 104.452C26.0627 104.96 26.0627 105.591 26.3638 106.099C26.6649 106.607 27.2197 106.913 27.8129 106.898H31.186V110.25C31.186 111.146 31.9169 111.872 32.8186 111.872C33.7203 111.872 34.4513 111.146 34.4513 110.25V106.898H37.8242C38.707 106.875 39.4208 106.176 39.4573 105.299C39.4805 104.877 39.3277 104.463 39.0349 104.156C38.742 103.849 38.335 103.676 37.9093 103.676L37.933 103.654ZM236.829 57.6311L240.202 57.6309L240.296 57.6318C240.721 57.6481 241.121 57.8313 241.41 58.1411C241.698 58.4509 241.851 58.8618 241.834 59.2835C241.81 60.1695 241.093 60.8822 240.202 60.9064H236.829V64.2281C236.829 65.124 236.098 65.8504 235.196 65.8504C234.295 65.8504 233.564 65.124 233.564 64.2281V60.8764H230.191C229.289 60.8764 228.558 60.1499 228.558 59.2537C228.558 58.3576 229.289 57.6311 230.191 57.6311H233.564V54.3021C233.586 53.4223 234.311 52.7208 235.196 52.7208C236.082 52.7208 236.806 53.4223 236.829 54.3021V57.6311Z" fill="#AFAFAF"/>
<path d="M91.7181 214.427H188.214C192.632 214.427 196.214 210.846 196.214 206.427V83.5226C196.214 80.34 194.949 77.2878 192.699 75.0373L172.629 54.9678C170.379 52.7174 167.327 51.4531 164.144 51.4531H91.7181C87.2999 51.4531 83.7181 55.0348 83.7181 59.4531V206.427C83.7181 210.846 87.2999 214.427 91.7181 214.427Z" fill="white"/>
<path fill-rule="evenodd" clip-rule="evenodd" d="M75 50.0498C75 46.1838 78.134 43.0498 82 43.0498H138.159V75.5145C138.159 80.4851 142.188 84.5145 147.159 84.5145H180.94V151.408H182.94V83.5145V83.0911L182.636 82.7964L139.855 41.3317L139.564 41.0498H139.159H82C77.0294 41.0498 73 45.0792 73 50.0498V188.061C73 193.032 77.0294 197.061 82 197.061H127.868V195.061H82C78.134 195.061 75 191.927 75 188.061V50.0498ZM179.471 82.5145L140.159 44.4117V75.5145C140.159 79.3805 143.293 82.5145 147.159 82.5145H179.471Z" fill="#AFAFAF"/>
<path d="M147 189.138L164.902 207L208 164" stroke="#AFAFAF" stroke-width="2"/>
<line x1="91.433" y1="104.634" x2="163.545" y2="104.634" stroke="#AFAFAF" stroke-width="2"/>
<line x1="91.433" y1="122.634" x2="163.545" y2="122.634" stroke="#AFAFAF" stroke-width="2"/>
<line x1="91.433" y1="140.634" x2="163.545" y2="140.634" stroke="#AFAFAF" stroke-width="2"/>
</svg>
