<svg width="21" height="20" viewBox="0 0 21 20" fill="none" xmlns="http://www.w3.org/2000/svg">
<path d="M10.1426 6.68172C10.1387 6.84487 10.0711 7.00001 9.9543 7.114C9.83751 7.22798 9.68077 7.29177 9.51758 7.29172C8.89258 7.29172 8.89258 6.66589 8.89258 6.66589V6.65839C8.89302 6.62108 8.89524 6.58381 8.89925 6.54672C8.93611 6.22481 9.05679 5.91822 9.24925 5.65755C9.62758 5.14672 10.3076 4.77255 11.4034 4.79172C12.1951 4.80589 12.8976 5.13755 13.3376 5.68339C13.7851 6.23922 13.9359 6.99172 13.6392 7.73255C13.3376 8.48672 12.6551 8.78672 12.2626 8.95839L12.2209 8.97755C11.9876 9.08005 11.8767 9.13339 11.8101 9.18672L11.8092 9.18755V9.79089C11.8094 9.95665 11.7436 10.1157 11.6265 10.233C11.5093 10.3502 11.3504 10.4162 11.1847 10.4163C11.0189 10.4164 10.8599 10.3507 10.7426 10.2335C10.6253 10.1164 10.5594 9.95748 10.5592 9.79172V9.16672C10.5592 8.73089 10.7692 8.41922 11.0284 8.21089C11.2367 8.04422 11.4992 7.92922 11.6834 7.84755L11.7151 7.83339C12.1667 7.63422 12.3817 7.51089 12.4792 7.26755C12.5365 7.13673 12.556 6.99252 12.5357 6.85117C12.5154 6.70982 12.456 6.57696 12.3642 6.46755C12.1792 6.23839 11.8401 6.04922 11.3817 6.04172C10.6026 6.02839 10.3442 6.27922 10.2542 6.40172C10.1946 6.48262 10.1563 6.57717 10.1426 6.67672V6.68172Z" fill="#FF4F01"/>
<path d="M11.1849 12.9167C11.4059 12.9167 11.6179 12.8289 11.7742 12.6726C11.9304 12.5163 12.0182 12.3043 12.0182 12.0833C12.0182 11.8623 11.9304 11.6504 11.7742 11.4941C11.6179 11.3378 11.4059 11.25 11.1849 11.25C10.9639 11.25 10.7519 11.3378 10.5956 11.4941C10.4394 11.6504 10.3516 11.8623 10.3516 12.0833C10.3516 12.3043 10.4394 12.5163 10.5956 12.6726C10.7519 12.8289 10.9639 12.9167 11.1849 12.9167Z" fill="#FF4F01"/>
<path d="M4.30957 3.74984C4.30957 3.1973 4.52906 2.6674 4.91976 2.2767C5.31047 1.886 5.84037 1.6665 6.3929 1.6665H15.9762C16.2498 1.6665 16.5207 1.72039 16.7735 1.82509C17.0263 1.92979 17.2559 2.08324 17.4494 2.2767C17.6428 2.47015 17.7963 2.69982 17.901 2.95258C18.0057 3.20534 18.0596 3.47625 18.0596 3.74984V15.6248C18.0596 15.7906 17.9937 15.9496 17.8765 16.0668C17.7593 16.184 17.6003 16.2498 17.4346 16.2498H5.55957C5.55957 16.4709 5.64737 16.6828 5.80365 16.8391C5.95993 16.9954 6.17189 17.0832 6.3929 17.0832H17.4346C17.6003 17.0832 17.7593 17.149 17.8765 17.2662C17.9937 17.3834 18.0596 17.5424 18.0596 17.7082C18.0596 17.8739 17.9937 18.0329 17.8765 18.1501C17.7593 18.2673 17.6003 18.3332 17.4346 18.3332H6.3929C5.84037 18.3332 5.31047 18.1137 4.91976 17.723C4.52906 17.3323 4.30957 16.8024 4.30957 16.2498V3.74984ZM5.55957 3.74984V14.9998H16.8096V3.74984C16.8096 3.52882 16.7218 3.31686 16.5655 3.16058C16.4092 3.0043 16.1973 2.9165 15.9762 2.9165H6.3929C6.17189 2.9165 5.95993 3.0043 5.80365 3.16058C5.64737 3.31686 5.55957 3.52882 5.55957 3.74984Z" fill="#FF4F01"/>
</svg>
