<svg width="20" height="20" viewBox="0 0 20 20" fill="none" xmlns="http://www.w3.org/2000/svg">
<g opacity="0.3">
<path d="M5.66675 9.58341H5.83341H7.00008H7.16675C7.08342 9.50008 7.08341 9.33341 7.08341 9.16675" fill="#FF4F01"/>
<path d="M5.66675 9.58341H5.83341H7.00008H7.16675C7.08342 9.50008 7.08341 9.33341 7.08341 9.16675" stroke="#FF4F01" stroke-width="0.1" stroke-miterlimit="10"/>
</g>
<g opacity="0.3">
<path d="M14.3333 9.58341H14.1666H12.9999H12.8333C12.9166 9.50008 12.9166 9.33341 12.9166 9.16675" fill="#FF4F01"/>
<path d="M14.3333 9.58341H14.1666H12.9999H12.8333C12.9166 9.50008 12.9166 9.33341 12.9166 9.16675" stroke="#FF4F01" stroke-width="0.1" stroke-miterlimit="10"/>
</g>
<path opacity="0.3" d="M10.6667 9.16675C10.6667 9.33341 10.6667 9.50008 10.7501 9.58341H10.6667H9.50008H9.41675C9.50008 9.50008 9.50008 9.33341 9.50008 9.16675" stroke="#FF4F01" stroke-width="0.1" stroke-miterlimit="10"/>
<path d="M16.6666 3.33325H14.1666H12.9166H10.5833H9.33329H7.08329H5.83329H3.33329L1.66663 9.16658C1.74996 9.83325 2.08329 10.4166 2.49996 10.9166V16.6666C2.49996 17.0833 2.91663 17.4999 3.33329 17.4999H16.6666C17.0833 17.4999 17.5 17.0833 17.5 16.6666V10.9166C17.9166 10.4999 18.25 9.83325 18.3333 9.16658L16.6666 3.33325ZM14.1666 4.58325H15.75L17.0833 9.16658V9.24992C17.0833 9.33325 17 9.49992 17 9.58325C16.75 10.0833 16.3333 10.4166 15.8333 10.4166H15.75H15.6666C15.1666 10.4166 14.6666 10.0833 14.4166 9.58325C14.3333 9.41658 14.3333 9.33325 14.25 9.16658V9.08325V4.58325H14.1666ZM10.6666 4.58325H13V9.16658C13 9.33325 13 9.41658 12.9166 9.58325C12.8333 9.74992 12.75 9.91659 12.6666 10.0833C12.4166 10.3333 12.1666 10.4166 11.8333 10.4166H11.75C11.25 10.4166 10.8333 10.0833 10.75 9.58325C10.75 9.49992 10.6666 9.33325 10.6666 9.16658V4.58325ZM7.08329 4.58325H9.41663V9.16658C9.41663 9.33325 9.41663 9.41658 9.33329 9.58325C9.16663 9.99992 8.74996 10.3333 8.33329 10.4166C8.24996 10.4166 8.24996 10.4166 8.16663 10.4166H8.08329C7.74996 10.3333 7.33329 10.0833 7.16663 9.58325C7.08329 9.41658 7.08329 9.33325 7.08329 9.16658V4.58325ZM4.24996 4.58325H5.83329V9.08325V9.16658C5.83329 9.33325 5.74996 9.41658 5.66663 9.58325C5.41663 10.0833 4.99996 10.4166 4.41663 10.4166H4.33329H4.24996C3.74996 10.4166 3.33329 10.0833 3.08329 9.58325C2.99996 9.49992 2.99996 9.33325 2.91663 9.24992V9.16658L4.24996 4.58325ZM16.25 16.2499H3.74996V11.5833C3.91663 11.6666 3.99996 11.6666 4.16663 11.6666C4.24996 11.6666 4.33329 11.6666 4.33329 11.6666C5.08329 11.6666 5.83329 11.3333 6.33329 10.7499C6.74996 11.2499 7.24996 11.5833 7.83329 11.6666C7.91663 11.6666 7.99996 11.6666 8.08329 11.6666C8.74996 11.6666 9.41663 11.3333 9.91663 10.8333C10.3333 11.3333 10.9166 11.6666 11.5833 11.6666H11.6666C12.4166 11.6666 13.0833 11.3333 13.5 10.7499C14 11.3333 14.75 11.6666 15.5 11.6666C15.5833 11.6666 15.5833 11.6666 15.6666 11.6666C15.8333 11.6666 15.9166 11.6666 16.0833 11.5833V16.2499H16.25Z" fill="#FF4F01"/>
</svg>
